<svg xmlns:dc="http://purl.org/dc/elements/1.1/" xmlns:cc="http://creativecommons.org/ns#" xmlns:rdf="http://www.w3.org/1999/02/22-rdf-syntax-ns#" xmlns:svg="http://www.w3.org/2000/svg" xmlns="http://www.w3.org/2000/svg" xmlns:sodipodi="http://sodipodi.sourceforge.net/DTD/sodipodi-0.dtd"
xmlns:inkscape="http://www.inkscape.org/namespaces/inkscape">
  <symbol viewBox="0 0 32 32" id="Poll">
    <title>Poll</title>
    <path fill="#444" d="M1.984 8.32h7.68v16.64h-7.68zM3.264 23.68h5.12v-14.080h-5.12zM31.394 27.52v-1.28h-30.722v1.28h30.722zM12.256 4.512h7.68v20.416h-7.68zM13.536 23.648h5.12v-17.856h-5.12zM22.464 12.16h7.68v12.8h-7.68zM23.744 13.44v10.24h5.12v-10.24z"
    /> </symbol>
  <symbol viewBox="0 0 32 32" id="add-block">
    <title>add-block</title>
    <metadata id="add-block-metadata837">
      <rdf:RDF>
        <cc:Work rdf:about="">
          <dc:format>image/svg+xml</dc:format>
          <dc:type rdf:resource="http://purl.org/dc/dcmitype/StillImage" />
          <dc:title>add-block</dc:title>
        </cc:Work>
      </rdf:RDF>
    </metadata>
    <sodipodi:namedview pagecolor="#ffffff" bordercolor="#666666" borderopacity="1" objecttolerance="10" gridtolerance="10" guidetolerance="10" inkscape:pageopacity="0" inkscape:pageshadow="2" inkscape:window-width="1442" inkscape:window-height="1177"
    id="add-block-namedview833" showgrid="false" inkscape:zoom="13.976407" inkscape:cx="10.719205" inkscape:cy="21.17039" inkscape:window-x="373" inkscape:window-y="190" inkscape:window-maximized="0" inkscape:current-layer="svg831" />
    <path d="M 16,32 C 24.837,32 32,24.837 32,16 32,7.163 24.837,0 16,0 7.163,0 0,7.163 0,16 0,24.837 7.163,32 16,32 Z m 0,-1.164 C 7.806,30.836 1.164,24.194 1.164,16 1.164,7.806 7.806,1.164 16,1.164 c 8.194,0 14.836,6.642 14.836,14.836 0,8.194 -6.642,14.836 -14.836,14.836 z"
    id="add-block-path827" inkscape:connector-curvature="0" />
    <path d="m 23.855,16.291 c 0,0.345 -0.037,0.641 -0.111,0.887 -0.074,0.246 -0.292,0.37 -0.653,0.37 h -5.543 v 5.568 c 0,0.345 -0.123,0.554 -0.37,0.628 -0.247,0.074 -0.542,0.111 -0.887,0.111 -0.345,0 -0.641,-0.037 -0.887,-0.111 -0.246,-0.074 -0.37,-0.283 -0.37,-0.628 V 17.548 H 9.491 c -0.361,0 -0.579,-0.123 -0.653,-0.37 -0.074,-0.247 -0.111,-0.542 -0.111,-0.887 0,-0.345 0.037,-0.641 0.111,-0.887 0.074,-0.246 0.292,-0.37 0.653,-0.37 h 5.543 V 9.491 c 0,-0.345 0.123,-0.558 0.37,-0.641 0.247,-0.083 0.542,-0.123 0.887,-0.123 0.345,0 0.641,0.041 0.887,0.123 0.246,0.082 0.37,0.296 0.37,0.641 v 5.543 h 5.543 c 0.361,0 0.579,0.123 0.653,0.37 0.074,0.247 0.111,0.542 0.111,0.887 v 0 z"
    id="add-block-path829" inkscape:connector-curvature="0" /> </symbol>
  <symbol viewBox="0 0 21 32" id="back">
    <title>back</title>
    <path fill="#444" d="M16 31.084l5.028-5.028-10.055-10.057 10.055-10.057-5.028-5.028-15.084 15.084 15.084 15.084z" /> </symbol>
  <symbol viewBox="0 0 32 32" id="bin">
    <title>bin</title>
    <path fill="#444" d="M5.333 11.733h21.333v2.133h-21.333zM5.333 7.467h21.333v2.133h-21.333zM10.667 5.333h10.667v2.133h-10.667zM9.6 13.867h12.8v12.8h-12.8z" /> </symbol>
  <symbol viewBox="0 0 30 32" id="binopen">
    <title>binopen</title>
    <path fill="#444" d="M12.114 0.414l14.142 14.142-1.414 1.414-14.142-14.142zM17.064 2.535l7.071 7.071-1.414 1.415-7.072-7.072zM5 18h20v2h-20zM9 20h12v12h-12z" /> </symbol>
  <symbol viewBox="0 0 29 32" id="bottom">
    <title>bottom</title>
    <path fill="#444" d="M0 32v-2.909h29.091v2.909h-29.091z" />
    <path fill="#444" d="M13.091 29.091v-29.091h2.909v29.091h-2.909z" />
    <path fill="#444" d="M14.545 30.545l8.727-8.727h-17.455z" /> </symbol>
  <symbol viewBox="0 0 32 32" id="box">
    <title>box</title>
    <sodipodi:namedview pagecolor="#ffffff" bordercolor="#666666" borderopacity="1" objecttolerance="10" gridtolerance="10" guidetolerance="10" inkscape:pageopacity="0" inkscape:pageshadow="2" inkscape:window-width="1419" inkscape:window-height="967"
    id="box-namedview825" showgrid="false" inkscape:zoom="19.28125" inkscape:cx="16" inkscape:cy="16" inkscape:window-x="1088" inkscape:window-y="64" inkscape:window-maximized="0" inkscape:current-layer="svg827" />
    <metadata id="box-metadata833">
      <rdf:RDF>
        <cc:Work rdf:about="">
          <dc:format>image/svg+xml</dc:format>
          <dc:type rdf:resource="http://purl.org/dc/dcmitype/StillImage" />
          <dc:title/> </cc:Work>
      </rdf:RDF>
    </metadata>
    <path inkscape:connector-curvature="0" d="M 31.951377,28.406627 V 3.5756494 c 0,-1.9673365 -1.577414,-3.50930298 -3.54475,-3.50930298 L 3.5933732,0.04862267 c -1.9496128,0 -3.54475067,1.55969023 -3.54475067,3.52702673 V 28.406627 c 0,1.949613 1.59513787,3.54475 3.54475067,3.54475 H 28.406627 c 1.967336,0 3.54475,-1.595137 3.54475,-3.54475 z M 7.6747703,3.5756494 H 28.406627 V 28.406627 H 7.6747703 M 3.784981,14.989735 c -1.7706588,0.038 -2.6819973,-1.148068 -2.6720688,-3.190707 0.00993,-2.04264 0.8970143,-3.210769 2.7757965,-3.1907083 1.8787822,0.020061 2.558617,1.1417253 2.5931929,3.0351163 0.034576,1.893391 -0.9262618,3.308305 -2.6969206,3.346299 z"
    id="box-path2" sodipodi:nodetypes="ssccssssscccczzzzz" />
    <g id="box-g855" transform="matrix(1.9767457,0,0,1.2655187,23.966534,4.4685059)">
      <rect y="0.94571543" x="-7.089633" height="1.6533318" width="8.1991425" id="box-rect4548" />
      <rect y="3.609416" x="-7.1708136" height="1.8370353" width="7.549706" id="box-rect4550" />
      <rect y="6.5486722" x="-7.089633" height="1.56148" width="8.0367851" id="box-rect4552" />
      <rect y="9.2123747" x="-7.2519941" height="1.6533318" width="8.1991425" id="box-rect4548-2" />
      <rect y="11.876076" x="-7.3331728" height="1.8370353" width="7.549706" id="box-rect4550-7" />
      <rect y="14.815333" x="-7.2519941" height="1.56148" width="8.0367851" id="box-rect4552-7" /> </g>
  </symbol>
  <symbol viewBox="0 0 32 32" id="box_attention">
    <title>box_attention</title>
    <sodipodi:namedview pagecolor="#ffffff" bordercolor="#666666" borderopacity="1" objecttolerance="10" gridtolerance="10" guidetolerance="10" inkscape:pageopacity="0" inkscape:pageshadow="2" inkscape:window-width="1419" inkscape:window-height="967"
    id="box_attention-namedview825" showgrid="false" inkscape:zoom="19.28125" inkscape:cx="17.139697" inkscape:cy="19.492429" inkscape:window-x="1088" inkscape:window-y="64" inkscape:window-maximized="0" inkscape:current-layer="svg827" />
    <metadata id="box_attention-metadata833">
      <rdf:RDF>
        <cc:Work rdf:about="">
          <dc:format>image/svg+xml</dc:format>
          <dc:type rdf:resource="http://purl.org/dc/dcmitype/StillImage" />
          <dc:title/> </cc:Work>
      </rdf:RDF>
    </metadata>
    <path inkscape:connector-curvature="0" d="m 28.214181,6.510521 -2.038106,-2.0381059 -2.587383,2.6018373 2.038106,2.038106 z M 17.445465,0.85875205 h -2.89093 V 5.1228745 h 2.89093 z M 27.563722,18.132061 h 4.336395 v -2.89093 H 27.563722 Z M 11.663604,24.18856 v 6.952688 h 8.672792 V 24.18856 c 2.587382,-1.503283 4.336395,-4.293031 4.336395,-7.501964 0,-4.78449 -3.888301,-8.6727913 -8.672791,-8.6727913 -4.78449,0 -8.6727912,3.8883013 -8.6727912,8.6727913 0,3.208933 1.7490129,5.998681 4.3363952,7.501964 z M 4.4362784,18.132061 v -2.89093 H 0.09988281 v 2.89093 z M 8.4257623,7.0597978 5.8383797,4.4579604 3.8002737,6.4960663 6.4021111,9.083449 Z"
    id="box_attention-path4" /> </symbol>
  <symbol viewBox="0 0 32 32" id="box_info">
    <title>box_info</title>
    <sodipodi:namedview pagecolor="#ffffff" bordercolor="#666666" borderopacity="1" objecttolerance="10" gridtolerance="10" guidetolerance="10" inkscape:pageopacity="0" inkscape:pageshadow="2" inkscape:window-width="1419" inkscape:window-height="967"
    id="box_info-namedview825" showgrid="false" inkscape:zoom="19.28125" inkscape:cx="17.139697" inkscape:cy="17.417875" inkscape:window-x="1088" inkscape:window-y="64" inkscape:window-maximized="0" inkscape:current-layer="svg827" />
    <metadata id="box_info-metadata833">
      <rdf:RDF>
        <cc:Work rdf:about="">
          <dc:format>image/svg+xml</dc:format>
          <dc:type rdf:resource="http://purl.org/dc/dcmitype/StillImage" />
          <dc:title/> </cc:Work>
      </rdf:RDF>
    </metadata>
    <path inkscape:connector-curvature="0" d="M 16,0.07131295 C 7.2073648,0.07131295 0.0713129,7.2073648 0.0713129,16 0.0713129,24.792636 7.2073648,31.928687 16,31.928687 24.792635,31.928687 31.928687,24.792636 31.928687,16 31.928687,7.2073648 24.792635,0.07131295 16,0.07131295 Z M 17.592869,23.964344 h -3.185738 v -9.557213 h 3.185738 z m 0,-12.74295 H 14.407131 V 8.0356566 h 3.185738 z"
    id="box_info-path4" /> </symbol>
  <symbol viewBox="0 0 32 32" id="box_warn">
    <title>box_warn</title>
    <sodipodi:namedview pagecolor="#ffffff" bordercolor="#666666" borderopacity="1" objecttolerance="10" gridtolerance="10" guidetolerance="10" inkscape:pageopacity="0" inkscape:pageshadow="2" inkscape:window-width="2498" inkscape:window-height="1417"
    id="box_warn-namedview825" showgrid="false" inkscape:zoom="19.28125" inkscape:cx="17.139697" inkscape:cy="14.876546" inkscape:window-x="54" inkscape:window-y="-8" inkscape:window-maximized="1" inkscape:current-layer="svg827" />
    <metadata id="box_warn-metadata833">
      <rdf:RDF>
        <cc:Work rdf:about="">
          <dc:format>image/svg+xml</dc:format>
          <dc:type rdf:resource="http://purl.org/dc/dcmitype/StillImage" />
          <dc:title/> </cc:Work>
      </rdf:RDF>
    </metadata>
    <path inkscape:connector-curvature="0" d="M 0.07489536,29.753499 H 31.925105 L 16.000001,2.2465009 Z M 17.447738,25.410288 h -2.895474 v -2.895473 h 2.895474 z m 0,-5.790946 h -2.895474 v -5.790947 h 2.895474 z" id="box_warn-path4" /> </symbol>
  <symbol viewBox="0 0 32 32" id="bump">
    <title>bump</title>
    <path fill="#444" d="M18.133 12h6.513l-8.533-8-8.533 8h6.287v8.333h4.267v-8.333zM5.333 22.4h21.333v4.267h-21.333z" /> </symbol>
  <symbol viewBox="0 0 36 32" id="center-align">
    <title>center-align</title>
    <path fill="#444" d="M0 0v3.556h35.556v-3.556h-35.556z" />
    <path fill="#444" d="M0 14.222v3.556h35.556v-3.556h-35.556z" />
    <path fill="#444" d="M0 28.444v3.556h35.556v-3.556h-35.556z" />
    <path fill="#444" d="M7.111 7.111v3.556h21.333v-3.556h-21.333z" />
    <path fill="#444" d="M7.111 21.333v3.556h21.333v-3.556h-21.333z" /> </symbol>
  <symbol viewBox="0 0 32 32" id="code">
    <title>code</title>
    <path fill="#444" d="M24.060 10.631l5.843 5.83v-0.906l-5.822 5.818 0.905 0.905 6.275-6.271-6.297-6.283-0.904 0.906z" />
    <path fill="#444" d="M6.991 9.725l-6.297 6.283 6.275 6.271 0.905-0.905-5.822-5.818v0.906l5.843-5.83-0.904-0.906z" />
    <path fill="#444" d="M12.317 25.41l8.408-18.885-1.169-0.521-8.668 19.469 1.169 0.521 0.26-0.585z" /> </symbol>
  <symbol viewBox="0 0 32 32" id="competition">
    <title>competition</title>
    <path fill="#444" d="M7.655 27.401l1.582-9.224-6.702-6.532 9.261-1.346 4.142-8.392 4.142 8.392 9.261 1.346-6.702 6.532 1.582 9.224-8.284-4.355zM5.287 12.539l5.326 5.192-1.257 7.331 6.584-3.461 6.584 3.461-1.257-7.331 5.326-5.192-7.361-1.070-3.292-6.67-3.292 6.67-0.666 0.097z"
    /> </symbol>
  <symbol viewBox="0 0 32 32" id="cross">
    <title>cross</title>
    <path fill="#444" d="M6.949 22.034l3.017 3.017 15.085-15.085-3.017-3.017-15.085 15.085zM9.966 6.949l-3.017 3.017 15.085 15.085 3.017-3.017-15.085-15.085z" /> </symbol>
  <symbol viewBox="0 0 32 32" id="default">
    <title>default</title>
    <path fill="#444" d="M11.429 11.429h9.143v9.143h-9.143v-9.143z" />
    <path fill="#444" d="M0 11.429h9.143v9.143h-9.143v-9.143z" />
    <path fill="#444" d="M0 0h9.143v9.143h-9.143v-9.143z" />
    <path fill="#444" d="M22.857 0h9.143v9.143h-9.143v-9.143z" />
    <path fill="#444" d="M11.429 0h9.143v9.143h-9.143v-9.143z" />
    <path fill="#444" d="M0 22.857h9.143v9.143h-9.143v-9.143z" />
    <path fill="#444" d="M22.857 22.517h9.143v9.143h-9.143v-9.143z" />
    <path fill="#444" d="M11.429 22.517h9.143v9.143h-9.143v-9.143z" />
    <path fill="#444" d="M22.857 11.429h9.143v9.143h-9.143v-9.143z" /> </symbol>
  <symbol viewBox="0 0 24 24" id="delete">
    <title>delete</title>
    <metadata id="delete-metadata2546">
      <rdf:RDF>
        <cc:Work rdf:about="">
          <dc:format>image/svg+xml</dc:format>
          <dc:type rdf:resource="http://purl.org/dc/dcmitype/StillImage" /> </cc:Work>
      </rdf:RDF>
    </metadata>
    <sodipodi:namedview pagecolor="#ffffff" bordercolor="#666666" borderopacity="1" objecttolerance="10" gridtolerance="10" guidetolerance="10" inkscape:pageopacity="0" inkscape:pageshadow="2" inkscape:window-width="1227" inkscape:window-height="849"
    id="delete-namedview2542" showgrid="false" inkscape:zoom="4.9166667" inkscape:cx="-1.3220339" inkscape:cy="24" inkscape:window-x="963" inkscape:window-y="154" inkscape:window-maximized="0" inkscape:current-layer="svg2540" />
    <path d="m 4.1016946,21.214689 c 0,1.448023 1.1847456,2.632769 2.6327682,2.632769 H 17.265536 c 1.448024,0 2.63277,-1.184746 2.63277,-2.632769 V 5.4180789 H 4.1016946 Z M 7.3399996,11.842034 9.1961012,9.9859321 12,12.776666 l 2.790734,-2.7907339 1.856102,1.8561019 -2.790734,2.790734 2.790734,2.790735 -1.856102,1.856101 L 12,16.48887 9.2092652,19.279604 7.3531634,17.423503 10.143898,14.632768 Z M 16.607344,1.4689264 15.29096,0.15254219 H 8.7090392 L 7.392655,1.4689264 H 2.7853104 V 4.1016947 H 21.21469 V 1.4689264 Z"
    id="delete-path2536" inkscape:connector-curvature="0" /> </symbol>
  <symbol viewBox="0 0 32 32" id="down">
    <title>down</title>
    <path fill="#444" d="M0.093 6.37q0.204-0.37 0.574-0.37h30.667q0.37 0 0.574 0.37t-0.056 0.704l-15.333 18.667q-0.222 0.259-0.518 0.259-0.37 0-0.518-0.259l-15.333-18.667q-0.259-0.333-0.056-0.704z" /> </symbol>
  <symbol viewBox="0 0 24 24" id="drag-handle">
    <title>drag-handle</title>
    <metadata id="drag-handle-metadata3113">
      <rdf:RDF>
        <cc:Work rdf:about="">
          <dc:format>image/svg+xml</dc:format>
          <dc:type rdf:resource="http://purl.org/dc/dcmitype/StillImage" /> </cc:Work>
      </rdf:RDF>
    </metadata>
    <sodipodi:namedview pagecolor="#ffffff" bordercolor="#666666" borderopacity="1" objecttolerance="10" gridtolerance="10" guidetolerance="10" inkscape:pageopacity="0" inkscape:pageshadow="2" inkscape:window-width="2498" inkscape:window-height="1417"
    id="drag-handle-namedview3109" showgrid="false" inkscape:zoom="27.812867" inkscape:cx="14.34642" inkscape:cy="25.993375" inkscape:window-x="54" inkscape:window-y="-8" inkscape:window-maximized="1" inkscape:current-layer="svg3107" />
    <path d="M 0.04273581,15.985755 H 23.957264 v -2.65717 H 0.04273581 Z m 0,5.31434 H 23.957264 v -2.65717 H 0.04273581 Z m 0,-10.62868 H 23.957264 V 8.014245 H 0.04273581 Z m 0,-7.9715097 V 5.3570751 H 23.957264 V 2.6999053 Z" id="drag-handle-path3105"
    inkscape:connector-curvature="0" /> </symbol>
  <symbol viewBox="0 0 32 32" id="edit">
    <title>edit</title>
    <path fill="#444" d="M8.785 18.591l11.792-11.67 4.189 4.192-11.714 11.697-4.267 0.035zM28.089 8.245l-2.209 2.22-4.374-4.377 2.208-2.22 1.028 0.009 3.331 3.263zM4.8 8h-2.133v21.333h21.333v-10.632l-4.267 4.274v2.091h-12.8v-12.8h2.133l4.262-4.267h-8.529z"
    /> </symbol>
  <symbol viewBox="0 0 32 32" id="embed">
    <title>embed</title>
    <path fill="#444" d="M7.040 11.488h22.016v-3.84h-22.016v3.84zM27.794 8.934l0.026 1.239-19.527 0.015 0.001-1.284 19.5 0.030zM0.64 17.888h30.72v-3.84h-30.72v3.84zM1.892 15.412l28.146-0.094-0.003 1.306-28.13-0.002-0.013-1.21zM0.704 24.288h20.544v-3.84h-20.544v3.84zM19.967 21.769l0.002 1.286-18.013-0.005 0.024-1.318 17.987 0.037zM27.015 22.822l0.451-0.452-3.261-3.27-0.906 0.904 2.375 2.343-2.385 2.395 0.906 0.905 2.821-2.824zM1.136 9.178l-0.451 0.452 3.261 3.27 0.906-0.904-2.416-2.363 2.426-2.374-0.906-0.905-2.821 2.824z"
    /> </symbol>
  <symbol viewBox="0 0 32 32" id="emphasis">
    <title>emphasis</title>
    <path fill="#444" d="M31.394 27.52v-1.28h-30.722v1.28h30.722z" />
    <path fill="#444" d="M31.426 5.824v-1.28h-30.722v1.28h30.722z" />
    <path fill="#444" d="M30.087 16.64v-1.28h-11.778v1.28h11.778z" />
    <path fill="#444" d="M26.16 21.696v-1.28h-7.851v1.28h7.851z" />
    <path fill="#444" d="M26.16 11.52v-1.28h-7.851v1.28h7.851z" />
    <path fill="#444" d="M15.168 9.824v-1.28h-12.416v1.28h12.416z" />
    <path fill="#444" d="M8 12.416v-1.28h-5.248v1.28h5.248z" />
    <path fill="#444" d="M7.104 23.55h1.28v-12.414h-1.28v12.414z" />
    <path fill="#444" d="M9.664 23.55h1.28v-12.414h-1.28v12.414z" />
    <path fill="#444" d="M12.229 24.032v-1.28h-6.4v1.28h6.4z" />
    <path fill="#444" d="M1.984 7.232h1.28v6.4h-1.28v-6.4z" />
    <path fill="#444" d="M14.784 7.232h1.28v6.4h-1.28v-6.4z" />
    <path fill="#444" d="M16.064 12.416v-1.28h-6.4v1.28h6.4z" /> </symbol>
  <symbol viewBox="0 0 17 32" id="file">
    <title>file</title>
    <path fill="#444" d="M9.65 12.281c0 0.441 0 0.441 0 2.122 0 1.34 0 1.34 0 2.844 0 2.937 0 2.937 0 4.656 0 1.095-0.789 1.727-1.813 1.727-1.075 0-1.838-0.589-1.819-1.716 0.013-0.811 0.010-3.096-0.006-7.251-0.002-0.588-0.002-0.588-0.005-1.171-0.017-4.196-0.019-4.725-0.019-5.609 0-1.559 1.422-2.666 3.249-2.666 1.808 0 3.304 1.198 3.304 2.781v14.207c0 2.53-2.051 4.58-4.58 4.58s-4.58-2.051-4.58-4.58v-9.923h-1.259v9.923c0 3.225 2.615 5.84 5.84 5.84s5.84-2.615 5.84-5.84v-14.207c0-2.348-2.113-4.040-4.563-4.040-2.463 0-4.508 1.592-4.508 3.925 0 0.887 0.002 1.415 0.019 5.614 0.002 0.583 0.002 0.583 0.005 1.171 0.016 4.139 0.019 6.428 0.006 7.225-0.032 1.918 1.364 2.997 3.079 2.997 1.666 0 3.073-1.126 3.073-2.986 0-1.719 0-1.719 0-4.656 0-1.504 0-1.504 0-2.844 0-1.68 0-1.68 0-2.122h-1.259z"
    /> </symbol>
  <symbol viewBox="0 0 32 32" id="fmt-bold">
    <title>fmt-bold</title>
    <path fill="#444" d="M13.821 23.040l-1.136-3.729h-5.711l-1.136 3.729h-3.579l5.529-15.729h4.061l5.55 15.729h-3.579zM11.893 16.526c-1.050-3.379-1.641-5.289-1.773-5.732s-0.227-0.793-0.284-1.050c-0.236 0.914-0.911 3.175-2.025 6.782h4.082zM26.721 23.040l-0.632-1.629h-0.086c-0.55 0.693-1.116 1.173-1.698 1.441s-1.341 0.402-2.277 0.402c-1.15 0-2.055-0.329-2.716-0.986s-0.991-1.593-0.991-2.807c0-1.271 0.445-2.209 1.334-2.813s2.23-0.938 4.023-1.002l2.079-0.064v-0.525c0-1.214-0.621-1.821-1.864-1.821-0.957 0-2.082 0.289-3.375 0.868l-1.082-2.207c1.379-0.721 2.907-1.082 4.586-1.082 1.607 0 2.839 0.35 3.696 1.050s1.286 1.764 1.286 3.193v7.982h-2.282zM25.757 17.49l-1.264 0.043c-0.95 0.029-1.657 0.2-2.121 0.514s-0.696 0.793-0.696 1.436c0 0.921 0.529 1.382 1.586 1.382 0.757 0 1.363-0.218 1.816-0.654s0.68-1.014 0.68-1.736v-0.986z"
    /> </symbol>
  <symbol viewBox="0 0 32 32" id="fmt-heading">
    <title>fmt-heading</title>
    <path fill="#444" d="M17.716 23.040h-3.311v-6.761h-6.204v6.761h-3.321v-15.664h3.321v6.139h6.204v-6.139h3.311v15.664zM26.496 23.040h-2.483v-6.798l0.024-1.117 0.040-1.221c-0.413 0.412-0.699 0.683-0.86 0.812l-1.35 1.085-1.197-1.495 3.785-3.013h2.041v11.748z"
    /> </symbol>
  <symbol viewBox="0 0 32 32" id="fmt-italic">
    <title>fmt-italic</title>
    <path fill="#444" d="M13.336 18.058h-5.314l-2.625 4.982h-2.025l8.561-15.664h1.864l1.971 15.664h-1.821l-0.611-4.982zM13.143 16.386l-0.375-3.204c-0.171-1.279-0.275-2.529-0.311-3.75-0.264 0.629-0.552 1.254-0.863 1.875s-1.202 2.314-2.673 5.079h4.221zM23.654 11.083c0.657 0 1.243 0.177 1.757 0.53s0.914 0.863 1.2 1.527h0.118l0.718-1.843h1.361l-2.496 11.743h-1.425l0.279-2.239h-0.086c-1.279 1.636-2.625 2.454-4.039 2.454-0.993 0-1.771-0.354-2.336-1.061s-0.846-1.675-0.846-2.904c0-1.486 0.254-2.864 0.761-4.136s1.207-2.268 2.1-2.989c0.893-0.721 1.871-1.082 2.936-1.082v0zM21.618 21.765c0.693 0 1.382-0.33 2.068-0.991s1.243-1.521 1.671-2.582c0.429-1.061 0.643-2.123 0.643-3.188 0-0.736-0.2-1.321-0.6-1.757s-0.925-0.654-1.575-0.654c-0.743 0-1.434 0.307-2.073 0.921s-1.141 1.446-1.505 2.496c-0.364 1.050-0.546 2.157-0.546 3.321 0 0.814 0.168 1.423 0.504 1.827s0.807 0.605 1.414 0.605v0z"
    /> </symbol>
  <symbol viewBox="0 0 32 32" id="fmt-link">
    <title>fmt-link</title>
    <path fill="#444" d="M12.51 21.61l-0.96 0.983c-0.421 0.406-0.929 0.609-1.522 0.609s-1.101-0.203-1.522-0.609c-0.203-0.203-0.359-0.433-0.468-0.691s-0.164-0.535-0.164-0.831c0-0.281 0.055-0.55 0.164-0.808s0.265-0.488 0.468-0.691l3.559-3.536c0.375-0.359 0.866-0.71 1.475-1.054s1.171-0.258 1.686 0.258c0.234 0.219 0.515 0.328 0.843 0.328s0.601-0.117 0.82-0.351c0.234-0.234 0.351-0.515 0.351-0.843s-0.117-0.609-0.351-0.843c-0.859-0.843-1.877-1.194-3.056-1.054s-2.322 0.765-3.43 1.873l-3.582 3.536c-0.421 0.437-0.749 0.929-0.983 1.475s-0.351 1.116-0.351 1.709c0 0.609 0.117 1.186 0.351 1.733s0.562 1.038 0.983 1.475c0.437 0.437 0.937 0.765 1.499 0.983s1.132 0.328 1.709 0.328c0.578 0 1.143-0.109 1.698-0.328s1.050-0.546 1.487-0.983l0.983-0.983c0.234-0.219 0.351-0.492 0.351-0.82s-0.117-0.609-0.351-0.843c-0.234-0.234-0.515-0.351-0.843-0.351s-0.609 0.109-0.843 0.328v0zM23.351 7.843c-0.937-0.921-1.982-1.401-3.138-1.44s-2.162 0.363-3.021 1.206l-1.218 1.218c-0.234 0.219-0.351 0.492-0.351 0.819s0.117 0.609 0.351 0.843c0.234 0.234 0.515 0.351 0.843 0.351s0.609-0.109 0.843-0.328l1.194-1.218c0.453-0.437 0.941-0.601 1.463-0.492s0.972 0.351 1.346 0.726c0.203 0.203 0.359 0.433 0.468 0.691s0.164 0.535 0.164 0.831c0 0.281-0.055 0.55-0.164 0.808s-0.265 0.488-0.468 0.691l-3.793 3.77c-0.874 0.859-1.538 1.214-1.99 1.065s-0.765-0.316-0.937-0.503c-0.234-0.219-0.515-0.328-0.843-0.328s-0.601 0.117-0.819 0.351c-0.234 0.234-0.351 0.515-0.351 0.843s0.117 0.601 0.351 0.82c0.39 0.406 0.812 0.706 1.264 0.901s0.921 0.293 1.405 0.293c0.578 0 1.171-0.144 1.779-0.433s1.21-0.73 1.803-1.323l3.817-3.77c0.421-0.437 0.749-0.929 0.983-1.475s0.351-1.116 0.351-1.709c0-0.609-0.117-1.186-0.351-1.733s-0.562-1.038-0.983-1.475v0z"
    /> </symbol>
  <symbol viewBox="0 0 32 32" id="fmt-quote">
    <title>fmt-quote</title>
    <path fill="#444" d="M19.034 21.501l2.964-6.069h-4.516v-9.032h9.032v9.032l-2.964 6.069h-4.516zM6.968 21.501l3.034-6.069h-4.516v-9.032h9.032v9.032l-3.034 6.069h-4.516z" /> </symbol>
  <symbol viewBox="0 0 32 32" id="fmt-quote2">
    <title>fmt-quote2</title>
    <path fill="#444" d="M19.034 21.501l2.964-6.069h-4.516v-9.032h9.032v9.032l-2.964 6.069h-4.516zM6.968 21.501l3.034-6.069h-4.516v-9.032h9.032v9.032l-3.034 6.069h-4.516z" /> </symbol>
  <symbol viewBox="0 0 32 32" id="fmt-unlink">
    <title>fmt-unlink</title>
    <path fill="#444" d="M13.424 21.61l-0.96 0.983c-0.421 0.406-0.929 0.609-1.522 0.609s-1.101-0.203-1.522-0.609c-0.203-0.203-0.359-0.433-0.468-0.691s-0.164-0.535-0.164-0.831c0-0.281 0.055-0.55 0.164-0.808s0.265-0.488 0.468-0.691l3.559-3.536c0.375-0.359 0.866-0.71 1.475-1.054s1.171-0.258 1.686 0.258c0.234 0.219 0.515 0.328 0.843 0.328s0.601-0.117 0.82-0.351c0.234-0.234 0.351-0.515 0.351-0.843s-0.117-0.609-0.351-0.843c-0.859-0.843-1.877-1.194-3.056-1.054s-2.322 0.765-3.43 1.873l-3.582 3.536c-0.421 0.437-0.749 0.929-0.983 1.475s-0.351 1.116-0.351 1.709c0 0.609 0.117 1.186 0.351 1.733s0.562 1.038 0.983 1.475c0.437 0.437 0.937 0.765 1.499 0.983s1.132 0.328 1.709 0.328c0.578 0 1.143-0.109 1.698-0.328s1.050-0.546 1.487-0.983l0.983-0.983c0.234-0.219 0.351-0.492 0.351-0.82s-0.117-0.609-0.351-0.843c-0.234-0.234-0.515-0.351-0.843-0.351s-0.609 0.109-0.843 0.328v0 0zM24.265 7.843c-0.937-0.921-1.982-1.401-3.138-1.44s-2.162 0.363-3.020 1.206l-1.218 1.218c-0.234 0.219-0.351 0.492-0.351 0.819s0.117 0.609 0.351 0.843c0.234 0.234 0.515 0.351 0.843 0.351s0.609-0.109 0.843-0.328l1.194-1.218c0.453-0.437 0.941-0.601 1.463-0.492s0.972 0.351 1.346 0.726c0.203 0.203 0.359 0.433 0.468 0.691s0.164 0.535 0.164 0.831c0 0.281-0.055 0.55-0.164 0.808s-0.265 0.488-0.468 0.691l-3.793 3.77c-0.874 0.859-1.538 1.214-1.99 1.065s-0.765-0.316-0.937-0.503c-0.234-0.219-0.515-0.328-0.843-0.328s-0.601 0.117-0.819 0.351c-0.234 0.234-0.351 0.515-0.351 0.843s0.117 0.601 0.351 0.82c0.39 0.406 0.812 0.706 1.264 0.901s0.921 0.293 1.405 0.293c0.578 0 1.171-0.144 1.779-0.433s1.21-0.73 1.803-1.323l3.817-3.77c0.421-0.437 0.749-0.929 0.983-1.475s0.351-1.116 0.351-1.709c0-0.609-0.117-1.186-0.351-1.733s-0.562-1.038-0.983-1.475v0 0z"
    />
    <path fill="#444" d="M6.857 17.371h19.657v-2.743h-21.029v2.743h1.371z" /> </symbol>
  <symbol viewBox="0 0 32 32" id="game">
    <title>game</title>
    <path fill="#444" d="M27.33 20.592c-0.724 4.331-4.49 7.632-9.026 7.632-5.055 0-9.152-4.098-9.152-9.152 0-0.546 0.048-1.080 0.139-1.6h-8.267v-7.552h9.937l1.327 1.327 1.327-1.327h5.329v0.022c3.9 0.269 7.128 2.982 8.163 6.619 0.435-0.351 0.991-0.561 1.597-0.561 1.396 0 2.528 1.117 2.528 2.496s-1.132 2.496-2.528 2.496c-0.506 0-0.978-0.147-1.374-0.4v0zM27.456 18.496c0-0.668 0.555-1.216 1.248-1.216s1.248 0.548 1.248 1.216c0 0.668-0.555 1.216-1.248 1.216s-1.248-0.548-1.248-1.216zM10.43 11.2h-8.126v4.992h8.671c-0.351 0.892-0.543 1.863-0.543 2.88 0 4.348 3.524 7.872 7.872 7.872s7.872-3.524 7.872-7.872c0-4.283-3.421-7.768-7.68-7.87v-0.002h-4.35l-1.858 1.858-1.858-1.858z"
    /> </symbol>
  <symbol viewBox="0 0 32 32" id="h1">
    <title>h1</title>
    <sodipodi:namedview pagecolor="#ffffff" bordercolor="#666666" borderopacity="1" objecttolerance="10" gridtolerance="10" guidetolerance="10" inkscape:pageopacity="0" inkscape:pageshadow="2" inkscape:window-width="1059" inkscape:window-height="695"
    id="h1-namedview5131" showgrid="false" inkscape:zoom="7.375" inkscape:cx="-0.88135593" inkscape:cy="16" inkscape:window-x="73" inkscape:window-y="10" inkscape:window-maximized="0" inkscape:current-layer="svg1693" />
    <metadata id="h1-metadata7500">
      <rdf:RDF>
        <cc:Work rdf:about="">
          <dc:format>image/svg+xml</dc:format>
          <dc:type rdf:resource="http://purl.org/dc/dcmitype/StillImage" />
          <dc:title>h1</dc:title>
        </cc:Work>
      </rdf:RDF>
    </metadata>
    <g id="h1-text5392" aria-label="1." transform="matrix(1.2358148,0,0,1.3816641,-2.2815118,-6.1066251)">
      <path id="h1-path6789" d="m 20.332678,25.038813 v 2.507412 H 6.6227995 V 25.038813 H 12.36558 V 7.729586 Q 12.001601,8.2148914 11.233201,8.7810811 10.464801,9.3472708 9.49419,9.8325762 8.5640212,10.317882 7.5529683,10.641419 6.5419153,10.964956 5.773515,10.964956 V 8.2957757 q 0.9301687,0 2.022106,-0.5257476 Q 8.9280003,7.2442806 9.8986112,6.5567645 10.909664,5.8692485 11.59718,5.2626167 12.284696,4.6559849 12.36558,4.4537743 h 2.830949 V 25.038813 Z"
      inkscape:connector-curvature="0" />
      <path id="h1-path6791" d="m 23.880842,27.546225 v -3.963328 h 2.345643 v 3.963328 z" inkscape:connector-curvature="0" /> </g>
  </symbol>
  <symbol viewBox="0 0 32 32" id="h2">
    <title>h2</title>
    <sodipodi:namedview pagecolor="#ffffff" bordercolor="#666666" borderopacity="1" objecttolerance="10" gridtolerance="10" guidetolerance="10" inkscape:pageopacity="0" inkscape:pageshadow="2" inkscape:window-width="1176" inkscape:window-height="676"
    id="h2-namedview5694" showgrid="false" inkscape:zoom="7.375" inkscape:cx="-0.88135593" inkscape:cy="16" inkscape:window-x="74" inkscape:window-y="691" inkscape:window-maximized="0" inkscape:current-layer="svg1693" />
    <metadata id="h2-metadata1699">
      <rdf:RDF>
        <cc:Work rdf:about="">
          <dc:format>image/svg+xml</dc:format>
          <dc:type rdf:resource="http://purl.org/dc/dcmitype/StillImage" />
          <dc:title/> </cc:Work>
      </rdf:RDF>
    </metadata>
    <g id="h2-text5392" aria-label="1.1." transform="matrix(1.1519922,0,0,1.9426465,-2.3640774,-15.082343)">
      <path id="h2-path6225" d="m 11.038422,21.504356 v 1.526936 H 2.6895315 V 21.504356 H 6.1867067 V 10.963575 Q 5.9650548,11.259111 5.4971229,11.603902 5.029191,11.948694 4.4381191,12.24423 3.8716753,12.539766 3.2559754,12.73679 2.6402755,12.933814 2.1723436,12.933814 v -1.625447 q 0.5664439,0 1.2313998,-0.320164 0.6895838,-0.320164 1.2806557,-0.73884 Q 5.3000989,9.8306869 5.7187749,9.461267 6.1374508,9.0918471 6.1867067,8.9687071 H 7.9106664 V 21.504356 Z"
      inkscape:connector-curvature="0" />
      <path id="h2-path6227" d="m 13.199143,23.031292 v -2.413544 h 1.428424 v 2.413544 z" inkscape:connector-curvature="0" />
      <path id="h2-path6229" d="m 26.238512,21.504356 v 1.526936 h -8.34889 v -1.526936 h 3.497175 V 10.963575 q -0.221652,0.295536 -0.689584,0.640327 -0.467932,0.344792 -1.059003,0.640328 -0.566444,0.295536 -1.182144,0.49256 -0.6157,0.197024 -1.083632,0.197024 v -1.625447 q 0.566444,0 1.2314,-0.320164 0.689584,-0.320164 1.280655,-0.73884 0.6157,-0.4186761 1.034376,-0.788096 0.418676,-0.3694199 0.467932,-0.4925599 h 1.72396 V 21.504356 Z"
      inkscape:connector-curvature="0" />
      <path id="h2-path6231" d="m 28.399233,23.031292 v -2.413544 h 1.428423 v 2.413544 z" inkscape:connector-curvature="0" /> </g>
  </symbol>
  <symbol viewBox="0 0 32 32" id="h3">
    <title>h3</title>
    <sodipodi:namedview pagecolor="#ffffff" bordercolor="#666666" borderopacity="1" objecttolerance="10" gridtolerance="10" guidetolerance="10" inkscape:pageopacity="0" inkscape:pageshadow="2" inkscape:window-width="1249" inkscape:window-height="720"
    id="h3-namedview6261" showgrid="false" inkscape:zoom="7.375" inkscape:cx="-0.88135593" inkscape:cy="16" inkscape:window-x="1264" inkscape:window-y="671" inkscape:window-maximized="0" inkscape:current-layer="svg1693" />
    <metadata id="h3-metadata1699">
      <rdf:RDF>
        <cc:Work rdf:about="">
          <dc:format>image/svg+xml</dc:format>
          <dc:type rdf:resource="http://purl.org/dc/dcmitype/StillImage" />
          <dc:title/> </cc:Work>
      </rdf:RDF>
    </metadata>
    <g id="h3-text5392" aria-label="1.1.1." transform="matrix(1.0928474,0,0,2.3236814,-1.4855585,-21.178901)">
      <path id="h3-path5657" d="M 7.438726,19.751449 V 20.79212 H 1.7486072 v -1.040671 h 2.3834716 v -7.183985 q -0.1510651,0.201421 -0.4699804,0.436411 -0.3189152,0.23499 -0.7217554,0.43641 -0.3860553,0.20142 -0.8056806,0.3357 -0.4196253,0.13428 -0.7385405,0.13428 v -1.10781 q 0.3860553,0 0.8392506,-0.218206 0.4699803,-0.218205 0.8728206,-0.50355 0.4196253,-0.285345 0.7049704,-0.53712 0.2853452,-0.251775 0.3189153,-0.3357 h 1.1749507 v 8.54357 z"
      inkscape:connector-curvature="0" />
      <path id="h3-path5659" d="M 8.9113485,20.79212 V 19.147189 H 9.8848791 V 20.79212 Z" inkscape:connector-curvature="0" />
      <path id="h3-path5661" d="m 17.798225,19.751449 v 1.040671 h -5.690119 v -1.040671 h 2.383472 v -7.183985 q -0.151065,0.201421 -0.469981,0.436411 -0.318915,0.23499 -0.721755,0.43641 -0.386055,0.20142 -0.805681,0.3357 -0.419625,0.13428 -0.73854,0.13428 v -1.10781 q 0.386055,0 0.83925,-0.218206 0.469981,-0.218205 0.872821,-0.50355 0.419625,-0.285345 0.704971,-0.53712 0.285345,-0.251775 0.318915,-0.3357 h 1.174951 v 8.54357 z"
      inkscape:connector-curvature="0" />
      <path id="h3-path5663" d="m 19.270848,20.79212 v -1.644931 h 0.973531 v 1.644931 z" inkscape:connector-curvature="0" />
      <path id="h3-path5665" d="m 28.157724,19.751449 v 1.040671 h -5.690119 v -1.040671 h 2.383472 v -7.183985 q -0.151065,0.201421 -0.469981,0.436411 -0.318915,0.23499 -0.721755,0.43641 -0.386055,0.20142 -0.805681,0.3357 -0.419625,0.13428 -0.73854,0.13428 v -1.10781 q 0.386055,0 0.83925,-0.218206 0.469981,-0.218205 0.872821,-0.50355 0.419625,-0.285345 0.70497,-0.53712 0.285346,-0.251775 0.318916,-0.3357 h 1.174951 v 8.54357 z"
      inkscape:connector-curvature="0" />
      <path id="h3-path5667" d="m 29.630347,20.79212 v -1.644931 h 0.973531 v 1.644931 z" inkscape:connector-curvature="0" /> </g>
  </symbol>
  <symbol viewBox="0 0 32 32" id="h4">
    <title>h4</title>
    <sodipodi:namedview pagecolor="#ffffff" bordercolor="#666666" borderopacity="1" objecttolerance="10" gridtolerance="10" guidetolerance="10" inkscape:pageopacity="0" inkscape:pageshadow="2" inkscape:window-width="895" inkscape:window-height="663"
    id="h4-namedview867" showgrid="false" inkscape:zoom="7.375" inkscape:cx="15.569292" inkscape:cy="16" inkscape:window-x="1432" inkscape:window-y="49" inkscape:window-maximized="0" inkscape:current-layer="svg1693" />
    <metadata id="h4-metadata1699">
      <rdf:RDF>
        <cc:Work rdf:about="">
          <dc:format>image/svg+xml</dc:format>
          <dc:type rdf:resource="http://purl.org/dc/dcmitype/StillImage" />
          <dc:title/> </cc:Work>
      </rdf:RDF>
    </metadata>
    <g id="h4-text5392" aria-label="1.1.1.1." transform="matrix(1.0261308,0,0,2.3304931,-0.41809402,-21.28789)">
      <path id="h4-path5085" d="m 5.187692,18.951879 v 0.818865 H 0.71034582 V 18.951879 H 2.5858124 v -5.652815 q -0.1188676,0.15849 -0.3698103,0.343395 -0.2509427,0.184905 -0.567923,0.343396 -0.3037728,0.15849 -0.6339605,0.26415 -0.33018781,0.10566 -0.58113051,0.10566 v -0.871696 q 0.30377275,0 0.66037551,-0.171698 0.3698103,-0.171697 0.6867906,-0.396225 0.3301878,-0.224528 0.5547155,-0.42264 0.2245276,-0.198113 0.2509427,-0.26415 h 0.9245257 v 6.722623 z"
      inkscape:connector-curvature="0" />
      <path id="h4-path5087" d="m 6.3464446,19.770744 v -1.294336 h 0.7660356 v 1.294336 z" inkscape:connector-curvature="0" />
      <path id="h4-path5089" d="m 13.339202,18.951879 v 0.818865 H 8.8618561 v -0.818865 h 1.8754669 v -5.652815 q -0.118868,0.15849 -0.369811,0.343395 -0.250942,0.184905 -0.5679227,0.343396 -0.3037727,0.15849 -0.6339605,0.26415 -0.3301878,0.10566 -0.5811305,0.10566 v -0.871696 q 0.3037728,0 0.6603756,-0.171698 0.3698103,-0.171697 0.6867905,-0.396225 0.3301876,-0.224528 0.5547156,-0.42264 0.224528,-0.198113 0.250943,-0.26415 h 0.924525 v 6.722623 z"
      inkscape:connector-curvature="0" />
      <path id="h4-path5091" d="m 14.497955,19.770744 v -1.294336 h 0.766035 v 1.294336 z" inkscape:connector-curvature="0" />
      <path id="h4-path5093" d="m 21.490713,18.951879 v 0.818865 h -4.477347 v -0.818865 h 1.875467 v -5.652815 q -0.118868,0.15849 -0.36981,0.343395 -0.250943,0.184905 -0.567923,0.343396 -0.303773,0.15849 -0.633961,0.26415 -0.330188,0.10566 -0.58113,0.10566 v -0.871696 q 0.303772,0 0.660375,-0.171698 0.36981,-0.171697 0.686791,-0.396225 0.330187,-0.224528 0.554715,-0.42264 0.224528,-0.198113 0.250943,-0.26415 h 0.924526 v 6.722623 z"
      inkscape:connector-curvature="0" />
      <path id="h4-path5095" d="m 22.649466,19.770744 v -1.294336 h 0.766036 v 1.294336 z" inkscape:connector-curvature="0" />
      <path id="h4-path5097" d="m 29.642223,18.951879 v 0.818865 h -4.477346 v -0.818865 h 1.875466 v -5.652815 q -0.118868,0.15849 -0.36981,0.343395 -0.250943,0.184905 -0.567923,0.343396 -0.303773,0.15849 -0.633961,0.26415 -0.330187,0.10566 -0.58113,0.10566 v -0.871696 q 0.303773,0 0.660375,-0.171698 0.369811,-0.171697 0.686791,-0.396225 0.330188,-0.224528 0.554715,-0.42264 0.224528,-0.198113 0.250943,-0.26415 h 0.924526 v 6.722623 z"
      inkscape:connector-curvature="0" />
      <path id="h4-path5099" d="m 30.800976,19.770744 v -1.294336 h 0.766036 v 1.294336 z" inkscape:connector-curvature="0" /> </g>
  </symbol>
  <symbol viewBox="0 0 32 32" id="heading">
    <title>heading</title>
    <path fill="#444" d="M12.733 5.792v-1.28h-8.888v1.28h8.888zM6.368 26.849h1.28v-21.761h-1.28v21.761zM8.928 14.746h14.080v-9.722h-1.28v8.442h-11.52v-8.387h-1.28v9.668zM10.208 17.248h11.52v9.722h1.28v-11.002h-14.080v10.94h1.28v-9.66zM24.288 26.656h1.28v-21.568h-1.28v21.568zM12.733 27.488v-1.28h-8.888v1.28h8.888zM28.157 5.792v-1.28h-8.888v1.28h8.888zM28.157 27.488v-1.28h-8.888v1.28h8.888z"
    /> </symbol>
  <symbol viewBox="0 0 32 32" id="iFrame">
    <title>iFrame</title>
    <path fill="#444" d="M7.008 15.968c0-1.414 1.146-2.56 2.56-2.56s2.56 1.146 2.56 2.56c0 1.414-1.146 2.56-2.56 2.56s-2.56-1.146-2.56-2.56zM10.848 15.968c0-0.707-0.573-1.28-1.28-1.28s-1.28 0.573-1.28 1.28c0 0.707 0.573 1.28 1.28 1.28s1.28-0.573 1.28-1.28zM13.408 15.968c0-1.414 1.146-2.56 2.56-2.56s2.56 1.146 2.56 2.56c0 1.414-1.146 2.56-2.56 2.56s-2.56-1.146-2.56-2.56zM17.248 15.968c0-0.707-0.573-1.28-1.28-1.28s-1.28 0.573-1.28 1.28c0 0.707 0.573 1.28 1.28 1.28s1.28-0.573 1.28-1.28zM19.808 15.968c0-1.414 1.146-2.56 2.56-2.56s2.56 1.146 2.56 2.56c0 1.414-1.146 2.56-2.56 2.56s-2.56-1.146-2.56-2.56zM23.648 15.968c0-0.707-0.573-1.28-1.28-1.28s-1.28 0.573-1.28 1.28c0 0.707 0.573 1.28 1.28 1.28s1.28-0.573 1.28-1.28zM29.602 16.021l-9.797 9.773 0.902 0.908 10.741-10.681-10.78-10.702-0.902 0.908 9.835 9.794zM1.015 15.568l-0.457 0.454 10.742 10.681 0.903-0.908-9.83-9.773 9.867-9.794-0.902-0.908-10.323 10.248z"
    /> </symbol>
  <symbol viewBox="0 0 32 32" id="image">
    <title>image</title>
    <path fill="#444" d="M31.36 4.48v23.040h-30.72v-23.040zM1.92 26.24h28.16v-20.48h-28.16zM18.665 14.883l10.209 10.102h-25.61l0.034-10.733 3.761-3.245 7.707 7.618zM4.548 23.706h21.213l-7.11-7.035-3.898 3.742-7.753-7.664-2.424 2.092zM21.12 11.584c0-1.767 1.433-3.2 3.2-3.2s3.2 1.433 3.2 3.2c0 1.767-1.433 3.2-3.2 3.2s-3.2-1.433-3.2-3.2zM26.24 11.584c0-1.060-0.86-1.92-1.92-1.92s-1.92 0.86-1.92 1.92c0 1.060 0.86 1.92 1.92 1.92s1.92-0.86 1.92-1.92z"
    /> </symbol>
  <symbol viewBox="0 0 32 32" id="instagram">
    <title>instagram</title>
    <path fill="#444" d="M21.056 11.072h3.968v-3.968h-3.968v3.968zM23.744 8.384v1.408h-1.408v-1.408h1.408z" />
    <path fill="#444" d="M5.76 15.36v-9.6h20.48v9.664h-4.516c-0.318-2.845-2.731-5.056-5.66-5.056-2.907 0-5.306 2.178-5.653 4.992h-4.651zM5.76 16.64v9.6h20.48v-9.536h-4.516c-0.318 2.845-2.731 5.056-5.66 5.056-2.951 0-5.378-2.245-5.667-5.12h-4.637zM4.48 27.52h23.040v-23.040h-23.040v23.040zM11.648 16.064c0-2.439 1.977-4.416 4.416-4.416s4.416 1.977 4.416 4.416c0 2.439-1.977 4.416-4.416 4.416s-4.416-1.977-4.416-4.416z"
    /> </symbol>
  <symbol viewBox="0 0 36 32" id="left-align">
    <title>left-align</title>
    <path fill="#444" d="M0 0v3.556h35.556v-3.556h-35.556z" />
    <path fill="#444" d="M0 14.222v3.556h35.556v-3.556h-35.556z" />
    <path fill="#444" d="M0 28.444v3.556h35.556v-3.556h-35.556z" />
    <path fill="#444" d="M0 7.111v3.556h21.333v-3.556h-21.333z" />
    <path fill="#444" d="M0 21.333v3.556h21.333v-3.556h-21.333z" /> </symbol>
  <symbol viewBox="0 0 32 32" id="link">
    <title>link</title>
    <path fill="#444" d="M29.794 2.333l-0.126-0.126c-2.942-2.942-7.756-2.942-10.698 0l-6.816 6.817c-2.942 2.942-2.942 7.756 0 10.697l0.126 0.126c0.245 0.245 0.505 0.466 0.773 0.671l2.495-2.495c-0.291-0.172-0.566-0.377-0.816-0.627l-0.126-0.126c-1.597-1.597-1.597-4.196 0-5.793l6.816-6.816c1.597-1.597 4.196-1.597 5.793 0l0.126 0.126c1.597 1.597 1.597 4.197 0 5.793l-3.084 3.084c0.535 1.322 0.789 2.731 0.767 4.137l4.769-4.769c2.942-2.942 2.942-7.756-0-10.697zM19.72 12.154c-0.245-0.245-0.505-0.466-0.773-0.67l-2.495 2.495c0.291 0.172 0.566 0.377 0.816 0.627l0.126 0.126c1.597 1.597 1.597 4.196 0 5.793l-6.817 6.817c-1.597 1.597-4.196 1.597-5.793 0l-0.126-0.126c-1.597-1.598-1.597-4.196 0-5.793l3.084-3.084c-0.535-1.322-0.789-2.731-0.767-4.137l-4.769 4.769c-2.942 2.942-2.942 7.756 0 10.698l0.126 0.126c2.942 2.942 7.756 2.942 10.698 0l6.816-6.816c2.942-2.942 2.942-7.756 0-10.698l-0.126-0.126z"
    /> </symbol>
  <symbol viewBox="0 0 32 32" id="list">
    <title>list</title>
    <path fill="#444" d="M4.48 7.68v3.84h-3.84v-3.84zM1.92 8.96v1.28h1.28v-1.28zM4.48 14.080v3.84h-3.84v-3.84zM1.92 15.36v1.28h1.28v-1.28zM4.48 20.48v3.84h-3.84v-3.84zM1.92 23.040h1.28v-1.28h-1.28zM26.24 7.68v3.84h-19.2v-3.84zM8.32 10.24h16.64v-1.28h-16.64zM31.36 14.080v3.84h-24.32v-3.84zM8.32 15.36v1.28h21.76v-1.28zM22.4 20.48v3.84h-15.36v-3.84zM8.32 21.76v1.28h12.8v-1.28z"
    /> </symbol>
  <symbol viewBox="0 0 32 32" id="listextended">
    <title>listextended</title>
    <metadata id="listextended-metadata833">
      <rdf:RDF>
        <cc:Work rdf:about="">
          <dc:format>image/svg+xml</dc:format>
          <dc:type rdf:resource="http://purl.org/dc/dcmitype/StillImage" />
          <dc:title/> </cc:Work>
      </rdf:RDF>
    </metadata>
    <path id="listextended-path835" d="M 0.24276882,17.750803 H 3.7443759 V 14.249196 H 0.24276882 Z m 0,7.003214 H 3.7443759 V 21.25241 H 0.24276882 Z m 0,-14.006428 H 3.7443759 V 7.2459827 H 0.24276882 Z M 7.2459828,17.750803 H 31.757231 V 14.249196 H 7.2459828 Z m 0,7.003214 H 31.757231 V 21.25241 H 7.2459828 Z m 0,-17.5080343 V 10.74759 H 31.757231 V 7.2459827 Z"
    /> </symbol>
  <symbol viewBox="0 0 25 32" id="middle">
    <title>middle</title>
    <path fill="#444" d="M0 14.769v2.462h24.615v-2.462h-24.615z" />
    <path fill="#444" d="M11.077 0v32h2.462v-32h-2.462z" />
    <path fill="#444" d="M12.308 16l7.385-7.385h-14.769z" />
    <path fill="#444" d="M12.308 16l7.385 7.385h-14.769z" /> </symbol>
  <symbol viewBox="0 0 36 32" id="minus">
    <title>minus</title>
    <path fill="#444" d="M0 12.444v7.111h35.556v-7.111h-35.556z" /> </symbol>
  <symbol viewBox="0 0 32 32" id="move-up-down">
    <title>move-up-down</title>
    <path fill="#444" d="M0 19.101l8.713-8.714 8.713 8.714-2.511 2.511-6.202-6.204-6.202 6.204-2.511-2.511zM14.571 12.9l2.512-2.513 6.201 6.203 6.203-6.203 2.514 2.513-8.716 8.711-8.714-8.711z" /> </symbol>
  <symbol viewBox="0 0 33 32" id="move">
    <title>move</title>
    <metadata id="move-metadata6378">
      <rdf:RDF>
        <cc:Work rdf:about="">
          <dc:format>image/svg+xml</dc:format>
          <dc:type rdf:resource="http://purl.org/dc/dcmitype/StillImage" />
          <dc:title>move</dc:title>
        </cc:Work>
      </rdf:RDF>
    </metadata>
    <sodipodi:namedview pagecolor="#ffffff" bordercolor="#666666" borderopacity="1" objecttolerance="10" gridtolerance="10" guidetolerance="10" inkscape:pageopacity="0" inkscape:pageshadow="2" inkscape:window-width="1765" inkscape:window-height="932"
    id="move-namedview6374" showgrid="false" inkscape:zoom="7.375" inkscape:cx="-20.118686" inkscape:cy="16" inkscape:window-x="647" inkscape:window-y="148" inkscape:window-maximized="0" inkscape:current-layer="svg6372" />
    <path d="M 7.226,3.613 C 7.226,5.608 5.608,7.226 3.613,7.226 1.618,7.226 0,5.608 0,3.613 0,1.618 1.618,0 3.613,0 5.608,0 7.226,1.618 7.226,3.613 Z" id="move-path6360" inkscape:connector-curvature="0" />
    <path d="m 19.613,3.613 c 0,1.995 -1.618,3.613 -3.613,3.613 -1.995,0 -3.613,-1.618 -3.613,-3.613 C 12.387,1.618 14.005,0 16,0 c 1.995,0 3.613,1.618 3.613,3.613 z" id="move-path6362" inkscape:connector-curvature="0" />
    <path d="m 33.032,3.613 c 0,1.995 -1.618,3.613 -3.613,3.613 -1.995,0 -3.613,-1.618 -3.613,-3.613 0,-1.995 1.618,-3.613 3.613,-3.613 1.995,0 3.613,1.618 3.613,3.613 z" id="move-path6364" inkscape:connector-curvature="0" />
    <path d="m 19.613,16 c 0,1.995 -1.618,3.613 -3.613,3.613 -1.995,0 -3.613,-1.618 -3.613,-3.613 0,-1.995 1.618,-3.613 3.613,-3.613 1.995,0 3.613,1.618 3.613,3.613 z" id="move-path6366" inkscape:connector-curvature="0" />
    <path d="m 7.226,16 c 0,1.995 -1.618,3.613 -3.613,3.613 C 1.618,19.613 0,17.995 0,16 c 0,-1.995 1.618,-3.613 3.613,-3.613 1.995,0 3.613,1.618 3.613,3.613 z" id="move-path6368" inkscape:connector-curvature="0" />
    <path d="M 7.226,28.387 C 7.226,30.382 5.608,32 3.613,32 1.618,32 0,30.382 0,28.387 c 0,-1.995 1.618,-3.613 3.613,-3.613 1.995,0 3.613,1.618 3.613,3.613 z" id="move-path6370" inkscape:connector-curvature="0" /> </symbol>
  <symbol viewBox="0 0 21 32" id="next">
    <title>next</title>
    <path fill="#444" d="M5.943 0.916l-5.028 5.028 10.055 10.057-10.055 10.057 5.028 5.028 15.084-15.084-15.084-15.084z" /> </symbol>
  <symbol viewBox="0 0 32 32" id="ol">
    <title>ol</title>
    <sodipodi:namedview pagecolor="#ffffff" bordercolor="#666666" borderopacity="1" objecttolerance="10" gridtolerance="10" guidetolerance="10" inkscape:pageopacity="0" inkscape:pageshadow="2" inkscape:window-width="1369" inkscape:window-height="802"
    id="ol-namedview1975" showgrid="false" inkscape:zoom="7.375" inkscape:cx="-0.88135593" inkscape:cy="16" inkscape:window-x="886" inkscape:window-y="50" inkscape:window-maximized="0" inkscape:current-layer="svg827" />
    <metadata id="ol-metadata833">
      <rdf:RDF>
        <cc:Work rdf:about="">
          <dc:format>image/svg+xml</dc:format>
          <dc:type rdf:resource="http://purl.org/dc/dcmitype/StillImage" />
          <dc:title/> </cc:Work>
      </rdf:RDF>
    </metadata>
    <path d="m 27.173941,26.367861 v 5.503583 H 5.9934857 V 26.367861 H 13.887513 V 6.9663406 q -0.500325,0.667101 -1.61216,1.389794 -1.056244,0.722693 -2.3348527,1.334202 -1.27861,0.6115094 -2.6684045,1.0562434 -1.389793,0.389142 -2.446037,0.389142 V 5.4097718 q 1.111835,0 2.557221,-0.667101 1.5009775,-0.667101 2.8907702,-1.5565687 1.389793,-0.8894675 2.390445,-1.7789355 1.000651,-0.88946795 1.223018,-1.27861025 h 6.226276 V 26.367861 Z"
    id="ol-path859" /> </symbol>
  <symbol viewBox="0 0 32 32" id="plus">
    <title>plus</title>
    <path fill="#444" d="M12.8 32h6.4v-32h-6.4v32z" />
    <path fill="#444" d="M0 12.8v6.4h32v-6.4h-32z" /> </symbol>
  <symbol viewBox="0 0 32 32" id="publish">
    <title>publish</title>
    <path fill="#444" d="M27.733 18.133l-8.533 8.533v-6.4h-10.667v-4.267h10.667v-6.4zM14.396 9.598l-0.002-1.598h-13.861v20.267h13.867v-5.849h-3.2l0.029 2.643-7.301-0.011-0.159-13.788 7.428-0.064 0.003 2.722 3.2-0.003-0.004-4.319z" /> </symbol>
  <symbol viewBox="0 0 32 32" id="quote">
    <title>quote</title>
    <path fill="#444" d="M3.17 14.114l7.744-7.713 5.072 0.012-7.695 7.668h6.4v11.52h-11.52zM4.45 14.623v9.697h8.96v-8.96h-8.218l7.702-7.675-1.454-0.003zM15.97 14.114l7.744-7.713 5.072 0.012-7.695 7.668h6.4v11.52h-11.52zM17.25 14.623v9.697h8.96v-8.96h-8.218l7.702-7.675-1.454-0.003z"
    /> </symbol>
  <symbol viewBox="0 0 32 32" id="republish">
    <title>republish</title>
    <path fill="#444" d="M27.733 18.133l-8.533 8.533v-6.4h-10.667v-4.267h10.667v-6.4l6.4 6.4zM32 18.133l-8.533 8.533h-2.133l8.533-8.533-8.533-8.533h2.133zM14.396 9.598l-0.002-1.598h-13.861v20.267h13.867v-5.849h-3.2l0.029 2.643-7.301-0.011-0.159-13.788 7.428-0.064 0.003 2.722 3.2-0.003-0.004-4.319z"
    /> </symbol>
  <symbol viewBox="0 0 36 32" id="right-align">
    <title>right-align</title>
    <path fill="#444" d="M35.556 0v3.556h-35.556v-3.556h35.556z" />
    <path fill="#444" d="M35.556 14.222v3.556h-35.556v-3.556h35.556z" />
    <path fill="#444" d="M35.556 28.444v3.556h-35.556v-3.556h35.556z" />
    <path fill="#444" d="M35.556 7.111v3.556h-21.333v-3.556h21.333z" />
    <path fill="#444" d="M35.556 21.333v3.556h-21.333v-3.556h21.333z" /> </symbol>
  <symbol viewBox="0 0 23 32" id="rotate">
    <title>rotate</title>
    <path fill="#444" d="M1.143 9.143l9.143-9.143v18.286z" />
    <path fill="#444" d="M10.286 6.857c6.943 0 12.571 5.628 12.571 12.571s-5.628 12.571-12.571 12.571c-3.646 0-6.93-1.552-9.226-4.032l3.355-3.105c1.461 1.578 3.551 2.566 5.871 2.566 4.418 0 8-3.582 8-8s-3.582-8-8-8v-4.571z" /> </symbol>
  <symbol viewBox="0 0 32 32" id="search">
    <title>search</title>
    <path fill="#444" d="M0 29.333q0-1.111 0.778-1.889l9.074-9.037q-1.852-2.889-1.852-6.407 0-4.963 3.518-8.482t8.482-3.518 8.482 3.518 3.518 8.482-3.518 8.482-8.482 3.518q-3.518 0-6.407-1.852l-9.037 9.074q-0.778 0.778-1.889 0.778t-1.889-0.778-0.778-1.889zM12 12q0 3.296 2.352 5.648t5.648 2.352 5.648-2.352 2.352-5.648-2.352-5.648-5.648-2.352-5.648 2.352-2.352 5.648z"
    /> </symbol>
  <symbol viewBox="0 0 32 32" id="small-tick">
    <title>small-tick</title>
    <path fill="#444" d="M11.725 20.022l-4.867-5.159-3.017 3.017 7.859 7.859 16.459-16.459-3.017-3.017-13.417 13.76z" /> </symbol>
  <symbol viewBox="0 0 44 32" id="table">
    <title>table</title>
    <path fill="#444" d="M42.684 0v32h-42.684v-32h42.684zM1.778 30.222h39.127v-28.444h-39.127v28.444z" />
    <path fill="#444" d="M40.906 32h1.779v-21.333h-42.684v21.333h1.778v-19.556h39.127v19.556z" />
    <path fill="#444" d="M42.684 1.778v-1.778h-32.018v32h32.018v-1.778h-30.239v-28.444h30.239z" /> </symbol>
  <symbol viewBox="0 0 32 32" id="text">
    <title>text</title>
    <path fill="#444" d="M19.94 5.985l5.977 5.98-15.837 15.904-5.998-0.050 0.020-5.93zM5.367 26.55l4.186 0.035 14.556-14.618-4.168-4.17-14.56 14.622zM26.573 11.21l-5.951-5.951 3.015-3.030 1.401 0.009 4.532 4.437 0.019 1.505zM22.43 5.257l4.141 4.141 1.731-1.739-0.005-0.439-3.784-3.705-0.346-0.002z"
    /> </symbol>
  <symbol viewBox="0 0 38 32" id="tick">
    <title>tick</title>
    <path fill="#444" d="M12.788 22.033l-7.301-7.74-4.525 4.525 11.788 11.788 24.689-24.689-4.525-4.525-20.125 20.64z" /> </symbol>
  <symbol viewBox="0 0 29 32" id="top">
    <title>top</title>
    <path fill="#444" d="M0 0v2.909h29.091v-2.909h-29.091z" />
    <path fill="#444" d="M13.091 2.909v29.091h2.909v-29.091h-2.909z" />
    <path fill="#444" d="M14.545 1.455l8.727 8.727h-17.455z" /> </symbol>
  <symbol viewBox="0 0 32 32" id="tweet">
    <title>tweet</title>
    <path fill="#444" d="M7.015 25.869c1.174 0.246 2.426 0.369 3.743 0.369 4.653 0 8.54-1.801 11.321-4.956 2.515-2.855 3.938-6.658 3.938-10.303 0-0.058-0-0.104-0.003-0.173-0.003-0.106-0.009-0.221-0.018-0.346-0.026-0.341-0.074-0.696-0.148-1.051-0.195-0.927-0.541-1.691-1.034-2.187-0.903-0.93-2.099-1.46-3.358-1.46-2.509 0-4.528 2.019-4.528 4.528 0 0.419 0.032 0.768 0.098 1.058l0.383 1.658-1.7-0.092c-4.361-0.237-8.359-1.958-11.397-4.831-0.012 0.131-0.018 0.265-0.018 0.402 0 1.526 0.762 2.919 2.022 3.759l3.749 2.5-4.503-0.155c-0.304-0.010-0.605-0.040-0.902-0.089 0.586 1.328 1.77 2.319 3.228 2.607l5.417 1.070-5.335 1.423c-0.247 0.066-0.501 0.118-0.759 0.157 0.817 0.888 1.981 1.444 3.235 1.461l3.574 0.046-2.791 2.233c-1.302 1.042-2.727 1.852-4.215 2.372zM27.297 10.98c0 7.679-5.841 16.539-16.539 16.539-3.281 0-6.366-0.722-8.926-2.363 0.459 0.066 0.919 0.098 1.378 0.098 2.724 0 5.25-1.181 7.219-2.756-2.527-0.033-4.693-1.739-5.414-4.036 0.361 0.066 0.722 0.099 1.083 0.099 0.525 0 1.050-0.066 1.542-0.197-2.658-0.525-4.66-2.888-4.66-5.775 0.788 0.427 1.674 0.689 2.625 0.722-1.575-1.050-2.592-2.822-2.592-4.824 0-1.083 0.295-1.969 0.788-2.822 2.888 3.511 7.154 5.71 11.977 5.972-0.098-0.427-0.131-0.886-0.131-1.345 0-3.216 2.592-5.808 5.808-5.808 1.668 0 3.173 0.717 4.255 1.827 1.293-0.265 2.521-0.753 3.622-1.4-0.423 1.333-1.329 2.474-2.527 3.197 0.002 0.005 0.004 0.010 0.005 0.015 1.167-0.134 2.271-0.46 3.309-0.915-0.781 1.172-1.757 2.183-2.862 3 0.038 0.41 0.038 0.698 0.038 0.774z"
    /> </symbol>
  <symbol viewBox="0 0 32 32" id="ul">
    <title>ul</title>
    <sodipodi:namedview pagecolor="#ffffff" bordercolor="#666666" borderopacity="1" objecttolerance="10" gridtolerance="10" guidetolerance="10" inkscape:pageopacity="0" inkscape:pageshadow="2" inkscape:window-width="1452" inkscape:window-height="753"
    id="ul-namedview1418" showgrid="false" inkscape:zoom="7.375" inkscape:cx="-12.067797" inkscape:cy="16" inkscape:window-x="749" inkscape:window-y="82" inkscape:window-maximized="0" inkscape:current-layer="svg827" />
    <metadata id="ul-metadata833">
      <rdf:RDF>
        <cc:Work rdf:about="">
          <dc:format>image/svg+xml</dc:format>
          <dc:type rdf:resource="http://purl.org/dc/dcmitype/StillImage" />
          <dc:title/> </cc:Work>
      </rdf:RDF>
    </metadata>
    <ellipse ry="15.874125" rx="15.895014" cy="16" cx="16" id="ul-path853" /> </symbol>
  <symbol viewBox="0 0 32 32" id="user">
    <title>user</title>
    <path fill="#444" d="M26.667 26.667c-7.649 0.062-15.272 0.062-21.333 0 0-3.612 3.665-6.625 8.533-7.317v-1.787c-1.275-0.738-2.133-2.117-2.133-3.696 0-0.094 0.003-0.188 0.009-0.28-0.643-0.368-1.076-1.060-1.076-1.853s0.433-1.486 1.076-1.853c-0.006-0.092-0.009-0.186-0.009-0.28 0-2.356 1.91-4.267 4.267-4.267s4.267 1.91 4.267 4.267c0 0.094-0.003 0.188-0.009 0.28 0.642 0.368 1.076 1.060 1.076 1.853s-0.433 1.486-1.076 1.853c0.006 0.092 0.009 0.186 0.009 0.28 0 1.579-0.858 2.958-2.133 3.696v1.787c4.869 0.692 8.533 3.705 8.533 7.317z"
    /> </symbol>
  <symbol viewBox="0 0 32 32" id="video">
    <title>video</title>
    <path fill="#444" d="M31.36 4.48v23.040h-30.72v-23.040zM1.92 26.24h28.16v-20.48h-28.16zM8.32 16.064c0-4.242 3.438-7.68 7.68-7.68s7.68 3.438 7.68 7.68c0 4.242-3.438 7.68-7.68 7.68s-7.68-3.438-7.68-7.68zM22.4 16.064c0-3.535-2.865-6.4-6.4-6.4s-6.4 2.865-6.4 6.4c0 3.535 2.865 6.4 6.4 6.4s6.4-2.865 6.4-6.4zM13.44 12.224l6.4 3.808-6.4 3.808zM17.337 16.032l-2.617-1.557v3.114z"
    /> </symbol>
  <symbol viewBox="0 0 32 32" id="view">
    <title>view</title>
    <path fill="#444" d="M16 24.533c-7.467 0-13.867-8.533-13.867-8.533s6.4-8.533 13.867-8.533c7.467 0 13.867 8.533 13.867 8.533s-6.4 8.533-13.867 8.533zM16 20.267c2.356 0 4.267-1.91 4.267-4.267s-1.91-4.267-4.267-4.267c-2.356 0-4.267 1.91-4.267 4.267s1.91 4.267 4.267 4.267z"
    /> </symbol>
  <symbol viewBox="0 0 32 32" id="width_100">
    <title>width_100</title>
    <metadata id="width_100-metadata1699">
      <rdf:RDF>
        <cc:Work rdf:about="">
          <dc:format>image/svg+xml</dc:format>
          <dc:type rdf:resource="http://purl.org/dc/dcmitype/StillImage" />
          <dc:title/> </cc:Work>
      </rdf:RDF>
    </metadata>
    <sodipodi:namedview pagecolor="#ffffff" bordercolor="#666666" borderopacity="1" objecttolerance="10" gridtolerance="10" guidetolerance="10" inkscape:pageopacity="0" inkscape:pageshadow="2" inkscape:window-width="967" inkscape:window-height="702" id="width_100-namedview1695"
    showgrid="false" inkscape:zoom="12.727922" inkscape:cx="15.525933" inkscape:cy="16.005715" inkscape:window-x="254" inkscape:window-y="0" inkscape:window-maximized="0" inkscape:current-layer="svg1693" />
    <g aria-label="100%" id="width_100-text4542" transform="matrix(1.0175281,0,0,1.0175281,-0.24041123,2.3972216)">
      <path d="m 5.1986311,28.09722 v 0.849052 H 0.55623471 V 28.09722 H 2.5008373 V 22.236023 Q 2.3775879,22.400356 2.1173946,22.592077 1.8572012,22.783799 1.528536,22.948131 1.2135652,23.112464 0.87120556,23.222019 0.52884594,23.331574 0.26865264,23.331574 v -0.903829 q 0.31497084,0 0.68471923,-0.178027 Q 1.3368146,22.071691 1.6654799,21.838886 2.0078395,21.606082 2.240644,21.400666 2.4734486,21.19525 2.5008373,21.126778 h 0.9586069 v 6.970442 z"
      id="width_100-path5117" inkscape:connector-curvature="0" />
      <path d="m 13.151431,24.933817 q 0,0.90383 -0.260193,1.670715 -0.260193,0.753191 -0.725803,1.314661 -0.451914,0.547775 -1.081856,0.862746 -0.629942,0.301277 -1.3694384,0.301277 -0.7394968,0 -1.3694385,-0.301277 -0.6299416,-0.314971 -1.0955507,-0.862746 -0.4519147,-0.56147 -0.712108,-1.314661 -0.2601933,-0.766885 -0.2601933,-1.670715 0,-0.903829 0.2601933,-1.65702 0.2601933,-0.766886 0.712108,-1.314661 0.4656091,-0.56147 1.0955507,-0.876441 0.6299417,-0.314971 1.3694385,-0.314971 0.7394964,0 1.3694384,0.314971 0.629942,0.314971 1.081856,0.876441 0.46561,0.547775 0.725803,1.314661 0.260193,0.753191 0.260193,1.65702 z m -0.944912,0 q 0,-0.739497 -0.191722,-1.342049 -0.178027,-0.602553 -0.506692,-1.027079 -0.328665,-0.438221 -0.794274,-0.671025 -0.451915,-0.246499 -0.9996904,-0.246499 -0.5614698,0 -1.0270788,0.246499 -0.4519147,0.232804 -0.78058,0.671025 -0.3286652,0.424526 -0.5203866,1.027079 -0.178027,0.602552 -0.178027,1.342049 0,0.739497 0.178027,1.34205 0.1917214,0.602553 0.5203866,1.040773 0.3286653,0.424526 0.78058,0.657331 0.465609,0.232804 1.0270788,0.232804 0.5477754,0 0.9996904,-0.232804 0.465609,-0.232805 0.794274,-0.657331 0.328665,-0.43822 0.506692,-1.040773 0.191722,-0.602553 0.191722,-1.34205 z"
      id="width_100-path5119" inkscape:connector-curvature="0" />
      <path d="m 21.576687,24.933817 q 0,0.90383 -0.260193,1.670715 -0.260194,0.753191 -0.725803,1.314661 -0.451914,0.547775 -1.081856,0.862746 -0.629942,0.301277 -1.369439,0.301277 -0.739496,0 -1.369438,-0.301277 -0.629942,-0.314971 -1.095551,-0.862746 -0.451915,-0.56147 -0.712108,-1.314661 -0.260193,-0.766885 -0.260193,-1.670715 0,-0.903829 0.260193,-1.65702 0.260193,-0.766886 0.712108,-1.314661 0.465609,-0.56147 1.095551,-0.876441 0.629942,-0.314971 1.369438,-0.314971 0.739497,0 1.369439,0.314971 0.629942,0.314971 1.081856,0.876441 0.465609,0.547775 0.725803,1.314661 0.260193,0.753191 0.260193,1.65702 z m -0.944913,0 q 0,-0.739497 -0.191721,-1.342049 -0.178027,-0.602553 -0.506692,-1.027079 -0.328665,-0.438221 -0.794275,-0.671025 -0.451914,-0.246499 -0.99969,-0.246499 -0.561469,0 -1.027078,0.246499 -0.451915,0.232804 -0.78058,0.671025 -0.328666,0.424526 -0.520387,1.027079 -0.178027,0.602552 -0.178027,1.342049 0,0.739497 0.178027,1.34205 0.191721,0.602553 0.520387,1.040773 0.328665,0.424526 0.78058,0.657331 0.465609,0.232804 1.027078,0.232804 0.547776,0 0.99969,-0.232804 0.46561,-0.232805 0.794275,-0.657331 0.328665,-0.43822 0.506692,-1.040773 0.191721,-0.602553 0.191721,-1.34205 z"
      id="width_100-path5121" inkscape:connector-curvature="0" />
      <path d="m 25.003492,23.016603 q -0.424526,0 -0.794274,-0.150638 -0.369748,-0.150638 -0.65733,-0.410831 -0.273888,-0.273888 -0.438221,-0.629942 -0.150638,-0.356054 -0.150638,-0.766886 0,-0.410831 0.150638,-0.766885 0.164333,-0.356054 0.438221,-0.616247 0.287582,-0.273888 0.65733,-0.424526 0.369748,-0.164333 0.794274,-0.164333 0.424526,0 0.794275,0.164333 0.383442,0.150638 0.65733,0.424526 0.273888,0.260193 0.43822,0.616247 0.164333,0.356054 0.164333,0.766885 0,0.410832 -0.164333,0.766886 -0.164332,0.356054 -0.43822,0.629942 -0.273888,0.260193 -0.65733,0.410831 -0.369749,0.150638 -0.794275,0.150638 z m 0,-0.534081 q 0.287582,0 0.534081,-0.109555 0.246499,-0.123249 0.424526,-0.314971 0.191722,-0.205415 0.287582,-0.451914 0.109555,-0.260194 0.109555,-0.547776 0,-0.301276 -0.109555,-0.561469 -0.109555,-0.260194 -0.301276,-0.451915 -0.191722,-0.191721 -0.43822,-0.301277 -0.246499,-0.109555 -0.506693,-0.109555 -0.273887,0 -0.520386,0.12325 -0.246499,0.109555 -0.438221,0.314971 -0.178027,0.191721 -0.287582,0.451914 -0.09586,0.246499 -0.09586,0.534081 0,0.287582 0.109555,0.547776 0.109555,0.260193 0.287582,0.465609 0.191721,0.191721 0.424526,0.301276 0.246499,0.109555 0.520386,0.109555 z m 4.601314,6.600694 q -0.424526,0 -0.794275,-0.150638 -0.369748,-0.150639 -0.65733,-0.410832 -0.273888,-0.273888 -0.438221,-0.629942 -0.150638,-0.369748 -0.150638,-0.78058 0,-0.410831 0.150638,-0.766885 0.164333,-0.356054 0.438221,-0.616247 0.287582,-0.273888 0.65733,-0.424526 0.369749,-0.150639 0.794275,-0.150639 0.424525,0 0.794274,0.150639 0.369748,0.150638 0.643636,0.424526 0.287582,0.260193 0.43822,0.616247 0.164333,0.356054 0.164333,0.766885 0,0.410832 -0.164333,0.78058 -0.150638,0.356054 -0.43822,0.629942 -0.273888,0.260193 -0.643636,0.410832 -0.369749,0.150638 -0.794274,0.150638 z m 0,-0.547776 q 0.287582,0 0.520386,-0.109555 0.246499,-0.123249 0.424526,-0.314971 0.191721,-0.191721 0.287582,-0.451914 0.109555,-0.260194 0.109555,-0.547776 0,-0.287582 -0.109555,-0.547775 -0.109555,-0.260193 -0.301276,-0.451915 -0.178027,-0.205415 -0.424526,-0.314971 -0.246499,-0.109555 -0.506692,-0.109555 -0.287583,0 -0.534081,0.12325 -0.232805,0.109555 -0.424526,0.314971 -0.178027,0.191721 -0.287582,0.451914 -0.09586,0.246499 -0.09586,0.534081 0,0.602553 0.383443,1.013385 0.397137,0.410831 0.958606,0.410831 z m -6.313112,0.04108 3.834428,-4.656091 3.711178,-4.751952 0.479304,0.410832 -3.807039,4.656091 -3.738567,4.765645 z"
      id="width_100-path5123" inkscape:connector-curvature="0" /> </g>
    <rect id="width_100-rect4546" width="31.976938" height="10.518747" x="1.5094428e-006" y="0.023059631" />
    <rect id="width_100-rect4548" width="29.339666" height="1.7695086" x="1.0713923" y="12.507927" />
    <rect id="width_100-rect4550" width="27.526541" height="1.9661207" x="1.4010514" y="15.358801" />
    <rect id="width_100-rect4552" width="28.680349" height="1.6712025" x="1.2362219" y="18.307981" /> </symbol>
  <symbol viewBox="0 0 32 32" id="width_25">
    <title>width_25</title>
    <metadata id="width_25-metadata1699">
      <rdf:RDF>
        <cc:Work rdf:about="">
          <dc:format>image/svg+xml</dc:format>
          <dc:type rdf:resource="http://purl.org/dc/dcmitype/StillImage" />
          <dc:title/> </cc:Work>
      </rdf:RDF>
    </metadata>
    <sodipodi:namedview pagecolor="#ffffff" bordercolor="#666666" borderopacity="1" objecttolerance="10" gridtolerance="10" guidetolerance="10" inkscape:pageopacity="0" inkscape:pageshadow="2" inkscape:window-width="1071" inkscape:window-height="703"
    id="width_25-namedview1695" showgrid="false" inkscape:zoom="12.727922" inkscape:cx="19.167931" inkscape:cy="16.005715" inkscape:window-x="196" inkscape:window-y="688" inkscape:window-maximized="0" inkscape:current-layer="svg1693" />
    <g aria-label="25%" id="width_25-text4542" transform="translate(0,1.0999439)">
      <path d="m 4.277714,28.946272 q 0,-0.506692 0.082166,-0.985996 0.095861,-0.492998 0.3423596,-0.944912 0.2601933,-0.451915 0.6984137,-0.862747 0.4519146,-0.424525 1.1503283,-0.794274 0.3697483,-0.191721 0.7942743,-0.383443 0.4382203,-0.205415 0.8079687,-0.451914 0.3697483,-0.246499 0.6025529,-0.547776 0.2464989,-0.301276 0.2464989,-0.712108 0,-0.260193 -0.1232495,-0.520386 Q 8.7694722,22.482522 8.5366676,22.277107 8.3175575,22.071691 7.9751979,21.948441 7.6465326,21.825192 7.2083123,21.825192 q -0.4519147,0 -0.8216631,0.136944 -0.356054,0.123249 -0.6299416,0.301276 -0.2738877,0.178027 -0.4656091,0.383443 -0.178027,0.191721 -0.2738877,0.314971 L 4.4009635,22.290801 q 0.082166,-0.08217 0.3149708,-0.301276 0.2328046,-0.219111 0.6025529,-0.438221 0.3834428,-0.21911 0.890135,-0.383443 0.5203867,-0.178027 1.1640227,-0.178027 0.6162473,0 1.0955508,0.178027 0.4929978,0.164333 0.8353575,0.46561 0.3423596,0.301276 0.5203866,0.698413 0.1780272,0.383443 0.1780272,0.821663 0,0.575164 -0.2738879,0.99969 -0.2601933,0.410832 -0.6436361,0.712108 -0.3834428,0.301277 -0.7942743,0.492998 -0.3971372,0.191722 -0.6573305,0.314971 -0.6162473,0.273888 -1.0270788,0.534081 -0.4108315,0.260193 -0.6710248,0.534081 -0.2601934,0.273888 -0.3971372,0.602553 -0.1232495,0.328665 -0.178027,0.753191 h 4.7930346 v 0.849052 z"
      id="width_25-path6329" inkscape:connector-curvature="0" />
      <path d="m 14.715617,24.673624 q 0.671024,0 1.246189,0.232804 0.575164,0.219111 0.99969,0.629942 0.43822,0.410832 0.684719,0.985996 0.246499,0.56147 0.246499,1.246189 0,0.725802 -0.273888,1.314661 -0.260193,0.602553 -0.725802,1.013384 -0.451915,0.424526 -1.068162,0.657331 -0.616248,0.232804 -1.314661,0.232804 -0.520387,0 -0.99969,-0.136944 -0.465609,-0.123249 -0.862747,-0.369748 -0.397137,-0.246499 -0.725802,-0.588859 -0.314971,-0.342359 -0.520387,-0.766885 l 0.616248,-0.465609 q 0.383443,0.671025 1.040773,1.081856 0.671025,0.410832 1.465299,0.410832 0.506692,0 0.944913,-0.178027 0.43822,-0.164333 0.766885,-0.479304 0.328665,-0.314971 0.506692,-0.753191 0.191722,-0.43822 0.191722,-0.958607 0,-0.506692 -0.178027,-0.917524 -0.178027,-0.424525 -0.492998,-0.725802 -0.314971,-0.301276 -0.739497,-0.465609 -0.410831,-0.164333 -0.903829,-0.164333 -0.657331,0 -1.232495,0.287582 -0.56147,0.273888 -0.917524,0.807969 h -0.862746 q 0.01369,-0.08217 0.06847,-0.369748 0.05478,-0.287582 0.136944,-0.684719 0.08217,-0.397138 0.178027,-0.876441 0.09586,-0.492998 0.191721,-0.985996 0.232805,-1.150328 0.506693,-2.56085 h 4.697174 v 0.862747 h -3.998761 l -0.671025,3.492068 q 0.356054,-0.383443 0.862747,-0.588859 0.520386,-0.21911 1.136634,-0.21911 z"
      id="width_25-path6331" inkscape:connector-curvature="0" />
      <path d="m 21.08051,23.016603 q -0.424526,0 -0.794275,-0.150638 -0.369748,-0.150638 -0.65733,-0.410831 -0.273888,-0.273888 -0.43822,-0.629942 -0.150639,-0.356054 -0.150639,-0.766886 0,-0.410831 0.150639,-0.766885 0.164332,-0.356054 0.43822,-0.616247 0.287582,-0.273888 0.65733,-0.424526 0.369749,-0.164333 0.794275,-0.164333 0.424526,0 0.794274,0.164333 0.383443,0.150638 0.65733,0.424526 0.273888,0.260193 0.438221,0.616247 0.164332,0.356054 0.164332,0.766885 0,0.410832 -0.164332,0.766886 -0.164333,0.356054 -0.438221,0.629942 -0.273887,0.260193 -0.65733,0.410831 -0.369748,0.150638 -0.794274,0.150638 z m 0,-0.534081 q 0.287582,0 0.534081,-0.109555 0.246499,-0.123249 0.424526,-0.314971 0.191721,-0.205415 0.287582,-0.451914 0.109555,-0.260194 0.109555,-0.547776 0,-0.301276 -0.109555,-0.561469 -0.109555,-0.260194 -0.301277,-0.451915 -0.191721,-0.191721 -0.43822,-0.301277 -0.246499,-0.109555 -0.506692,-0.109555 -0.273888,0 -0.520387,0.12325 -0.246499,0.109555 -0.43822,0.314971 -0.178027,0.191721 -0.287582,0.451914 -0.09586,0.246499 -0.09586,0.534081 0,0.287582 0.109555,0.547776 0.109555,0.260193 0.287582,0.465609 0.191721,0.191721 0.424526,0.301276 0.246499,0.109555 0.520387,0.109555 z m 4.601313,6.600694 q -0.424526,0 -0.794274,-0.150638 -0.369749,-0.150639 -0.657331,-0.410832 -0.273888,-0.273888 -0.43822,-0.629942 -0.150638,-0.369748 -0.150638,-0.78058 0,-0.410831 0.150638,-0.766885 0.164332,-0.356054 0.43822,-0.616247 0.287582,-0.273888 0.657331,-0.424526 0.369748,-0.150639 0.794274,-0.150639 0.424526,0 0.794274,0.150639 0.369749,0.150638 0.643636,0.424526 0.287582,0.260193 0.438221,0.616247 0.164332,0.356054 0.164332,0.766885 0,0.410832 -0.164332,0.78058 -0.150639,0.356054 -0.438221,0.629942 -0.273887,0.260193 -0.643636,0.410832 -0.369748,0.150638 -0.794274,0.150638 z m 0,-0.547776 q 0.287582,0 0.520386,-0.109555 0.246499,-0.123249 0.424526,-0.314971 0.191722,-0.191721 0.287582,-0.451914 0.109556,-0.260194 0.109556,-0.547776 0,-0.287582 -0.109556,-0.547775 -0.109555,-0.260193 -0.301276,-0.451915 -0.178027,-0.205415 -0.424526,-0.314971 -0.246499,-0.109555 -0.506692,-0.109555 -0.287582,0 -0.534081,0.12325 -0.232805,0.109555 -0.424526,0.314971 -0.178027,0.191721 -0.287582,0.451914 -0.09586,0.246499 -0.09586,0.534081 0,0.602553 0.383443,1.013385 0.397137,0.410831 0.958606,0.410831 z m -6.313111,0.04108 3.834427,-4.656091 3.711178,-4.751952 0.479304,0.410832 -3.807039,4.656091 -3.738567,4.765645 z"
      id="width_25-path6333" inkscape:connector-curvature="0" /> </g>
    <rect id="width_25-rect4546" width="8.8248472" height="19.56329" x="1.5094428e-006" y="0.10162705" />
    <rect id="width_25-rect4548" width="21.773458" height="1.7695435" x="9.7320766" y="0.29824367" />
    <rect id="width_25-rect4550" width="20.427908" height="1.9661596" x="9.9767218" y="3.1491745" />
    <rect id="width_25-rect4552" width="21.284168" height="1.6712356" x="9.8544006" y="6.0984135" />
    <rect id="width_25-rect4548-4" width="21.773458" height="1.7695435" x="9.6496029" y="8.851037" />
    <rect id="width_25-rect4550-3" width="20.427908" height="1.9661596" x="9.8942471" y="11.701968" />
    <rect id="width_25-rect4552-8" width="21.284168" height="1.6712356" x="9.7719259" y="14.651207" /> </symbol>
  <symbol viewBox="0 0 32 32" id="width_50">
    <title>width_50</title>
    <metadata id="width_50-metadata1699">
      <rdf:RDF>
        <cc:Work rdf:about="">
          <dc:format>image/svg+xml</dc:format>
          <dc:type rdf:resource="http://purl.org/dc/dcmitype/StillImage" />
          <dc:title/> </cc:Work>
      </rdf:RDF>
    </metadata>
    <sodipodi:namedview pagecolor="#ffffff" bordercolor="#666666" borderopacity="1" objecttolerance="10" gridtolerance="10" guidetolerance="10" inkscape:pageopacity="0" inkscape:pageshadow="2" inkscape:window-width="1167" inkscape:window-height="644"
    id="width_50-namedview1695" showgrid="false" inkscape:zoom="12.727922" inkscape:cx="20.829565" inkscape:cy="16.005715" inkscape:window-x="1284" inkscape:window-y="724" inkscape:window-maximized="0" inkscape:current-layer="svg1693" />
    <g aria-label="50%" id="width_50-text4542" transform="translate(1.5e-7,0.94280905)">
      <path d="m 6.9410578,24.673624 q 0.6710248,0 1.246189,0.232804 0.5751641,0.219111 0.99969,0.629942 0.4382203,0.410832 0.6847193,0.985996 0.2464989,0.56147 0.2464989,1.246189 0,0.725802 -0.2738877,1.314661 -0.2601933,0.602553 -0.7258024,1.013384 -0.4519147,0.424526 -1.068162,0.657331 -0.6162473,0.232804 -1.3146609,0.232804 -0.5203866,0 -0.9996901,-0.136944 Q 5.2703428,30.726542 4.8732057,30.480043 4.4760685,30.233544 4.1474033,29.891184 3.8324325,29.548825 3.6270167,29.124299 L 4.243264,28.65869 q 0.3834428,0.671025 1.0407732,1.081856 0.6710249,0.410832 1.4652992,0.410832 0.5066922,0 0.9449125,-0.178027 0.4382203,-0.164333 0.7668856,-0.479304 0.3286652,-0.314971 0.5066922,-0.753191 0.1917214,-0.43822 0.1917214,-0.958607 0,-0.506692 -0.178027,-0.917524 Q 8.8034941,26.4402 8.4885232,26.138923 8.1735524,25.837647 7.7490265,25.673314 7.3381949,25.508981 6.8451971,25.508981 q -0.6573305,0 -1.2324946,0.287582 -0.5614698,0.273888 -0.9175238,0.807969 H 3.8324325 q 0.013694,-0.08217 0.068472,-0.369748 0.054778,-0.287582 0.1369438,-0.684719 0.082166,-0.397138 0.178027,-0.876441 0.095861,-0.492998 0.1917214,-0.985996 0.2328046,-1.150328 0.5066923,-2.56085 h 4.6971739 v 0.862747 H 5.6127025 l -0.6710249,3.492068 q 0.356054,-0.383443 0.8627462,-0.588859 0.5203867,-0.21911 1.136634,-0.21911 z"
      id="width_50-path5738" inkscape:connector-curvature="0" />
      <path d="m 18.304401,24.933817 q 0,0.90383 -0.260193,1.670715 -0.260193,0.753191 -0.725802,1.314661 -0.451915,0.547775 -1.081857,0.862746 -0.629942,0.301277 -1.369438,0.301277 -0.739497,0 -1.369439,-0.301277 -0.629941,-0.314971 -1.095551,-0.862746 -0.451914,-0.56147 -0.712108,-1.314661 -0.260193,-0.766885 -0.260193,-1.670715 0,-0.903829 0.260193,-1.65702 0.260194,-0.766886 0.712108,-1.314661 0.46561,-0.56147 1.095551,-0.876441 0.629942,-0.314971 1.369439,-0.314971 0.739496,0 1.369438,0.314971 0.629942,0.314971 1.081857,0.876441 0.465609,0.547775 0.725802,1.314661 0.260193,0.753191 0.260193,1.65702 z m -0.944912,0 q 0,-0.739497 -0.191722,-1.342049 -0.178027,-0.602553 -0.506692,-1.027079 -0.328665,-0.438221 -0.794274,-0.671025 -0.451915,-0.246499 -0.99969,-0.246499 -0.56147,0 -1.027079,0.246499 -0.451915,0.232804 -0.78058,0.671025 -0.328665,0.424526 -0.520387,1.027079 -0.178027,0.602552 -0.178027,1.342049 0,0.739497 0.178027,1.34205 0.191722,0.602553 0.520387,1.040773 0.328665,0.424526 0.78058,0.657331 0.465609,0.232804 1.027079,0.232804 0.547775,0 0.99969,-0.232804 0.465609,-0.232805 0.794274,-0.657331 0.328665,-0.43822 0.506692,-1.040773 0.191722,-0.602553 0.191722,-1.34205 z"
      id="width_50-path5740" inkscape:connector-curvature="0" />
      <path d="m 21.731207,23.016603 q -0.424526,0 -0.794275,-0.150638 -0.369748,-0.150638 -0.65733,-0.410831 -0.273888,-0.273888 -0.43822,-0.629942 -0.150639,-0.356054 -0.150639,-0.766886 0,-0.410831 0.150639,-0.766885 0.164332,-0.356054 0.43822,-0.616247 0.287582,-0.273888 0.65733,-0.424526 0.369749,-0.164333 0.794275,-0.164333 0.424526,0 0.794274,0.164333 0.383443,0.150638 0.65733,0.424526 0.273888,0.260193 0.438221,0.616247 0.164332,0.356054 0.164332,0.766885 0,0.410832 -0.164332,0.766886 -0.164333,0.356054 -0.438221,0.629942 -0.273887,0.260193 -0.65733,0.410831 -0.369748,0.150638 -0.794274,0.150638 z m 0,-0.534081 q 0.287582,0 0.534081,-0.109555 0.246499,-0.123249 0.424526,-0.314971 0.191721,-0.205415 0.287582,-0.451914 0.109555,-0.260194 0.109555,-0.547776 0,-0.301276 -0.109555,-0.561469 -0.109555,-0.260194 -0.301277,-0.451915 -0.191721,-0.191721 -0.43822,-0.301277 -0.246499,-0.109555 -0.506692,-0.109555 -0.273888,0 -0.520387,0.12325 -0.246499,0.109555 -0.43822,0.314971 -0.178027,0.191721 -0.287582,0.451914 -0.09586,0.246499 -0.09586,0.534081 0,0.287582 0.109555,0.547776 0.109555,0.260193 0.287582,0.465609 0.191721,0.191721 0.424526,0.301276 0.246499,0.109555 0.520387,0.109555 z m 4.601313,6.600694 q -0.424526,0 -0.794274,-0.150638 -0.369749,-0.150639 -0.657331,-0.410832 -0.273888,-0.273888 -0.43822,-0.629942 -0.150638,-0.369748 -0.150638,-0.78058 0,-0.410831 0.150638,-0.766885 0.164332,-0.356054 0.43822,-0.616247 0.287582,-0.273888 0.657331,-0.424526 0.369748,-0.150639 0.794274,-0.150639 0.424526,0 0.794274,0.150639 0.369749,0.150638 0.643636,0.424526 0.287582,0.260193 0.438221,0.616247 0.164332,0.356054 0.164332,0.766885 0,0.410832 -0.164332,0.78058 -0.150639,0.356054 -0.438221,0.629942 -0.273887,0.260193 -0.643636,0.410832 -0.369748,0.150638 -0.794274,0.150638 z m 0,-0.547776 q 0.287582,0 0.520386,-0.109555 0.246499,-0.123249 0.424526,-0.314971 0.191722,-0.191721 0.287582,-0.451914 0.109556,-0.260194 0.109556,-0.547776 0,-0.287582 -0.109556,-0.547775 -0.109555,-0.260193 -0.301276,-0.451915 -0.178027,-0.205415 -0.424526,-0.314971 -0.246499,-0.109555 -0.506692,-0.109555 -0.287582,0 -0.534081,0.12325 -0.232805,0.109555 -0.424526,0.314971 -0.178027,0.191721 -0.287582,0.451914 -0.09586,0.246499 -0.09586,0.534081 0,0.602553 0.383443,1.013385 0.397137,0.410831 0.958606,0.410831 z m -6.313111,0.04108 3.834427,-4.656091 3.711178,-4.751952 0.479304,0.410832 -3.807039,4.656091 -3.738567,4.765645 z"
      id="width_50-path5742" inkscape:connector-curvature="0" /> </g>
    <rect id="width_50-rect4546" width="16.248646" height="19.170452" x="-0.07856591" y="-0.05550779" />
    <rect id="width_50-rect4548" width="14.279114" height="1.7605516" x="16.990717" y="0.042301327" />
    <rect id="width_50-rect4550" width="13.396697" height="1.9561684" x="17.151157" y="2.8787451" />
    <rect id="width_50-rect4552" width="13.958234" height="1.6627431" x="17.070938" y="5.8129969" />
    <rect id="width_50-rect4548-8" width="14.279114" height="1.7605516" x="16.990719" y="8.6494427" />
    <rect id="width_50-rect4550-8" width="13.396697" height="1.9561684" x="17.151157" y="11.485886" />
    <rect id="width_50-rect4552-2" width="13.958234" height="1.6627431" x="17.070938" y="14.420138" /> </symbol>
  <symbol viewBox="0 0 32 32" id="width_75">
    <title>width_75</title>
    <metadata id="width_75-metadata1699">
      <rdf:RDF>
        <cc:Work rdf:about="">
          <dc:format>image/svg+xml</dc:format>
          <dc:type rdf:resource="http://purl.org/dc/dcmitype/StillImage" />
          <dc:title/> </cc:Work>
      </rdf:RDF>
    </metadata>
    <sodipodi:namedview pagecolor="#ffffff" bordercolor="#666666" borderopacity="1" objecttolerance="10" gridtolerance="10" guidetolerance="10" inkscape:pageopacity="0" inkscape:pageshadow="2" inkscape:window-width="997" inkscape:window-height="865" id="width_75-namedview1695"
    showgrid="false" inkscape:zoom="12.727922" inkscape:cx="14.908715" inkscape:cy="16.005715" inkscape:window-x="1416" inkscape:window-y="15" inkscape:window-maximized="0" inkscape:current-layer="svg1693" />
    <g aria-label="75%" id="width_75-text4542" transform="translate(-1e-7,1.0999439)">
      <path d="M 9.4750535,21.825192 H 4.2301042 V 20.962446 H 10.954047 L 6.037763,30.685459 H 4.969601 Z" id="width_75-path5147" inkscape:connector-curvature="0" />
      <path d="m 14.763226,24.673624 q 0.671025,0 1.246189,0.232804 0.575164,0.219111 0.99969,0.629942 0.43822,0.410832 0.684719,0.985996 0.246499,0.56147 0.246499,1.246189 0,0.725802 -0.273888,1.314661 -0.260193,0.602553 -0.725802,1.013384 -0.451915,0.424526 -1.068162,0.657331 -0.616247,0.232804 -1.314661,0.232804 -0.520387,0 -0.99969,-0.136944 -0.465609,-0.123249 -0.862746,-0.369748 -0.397137,-0.246499 -0.725803,-0.588859 -0.31497,-0.342359 -0.520386,-0.766885 l 0.616247,-0.465609 q 0.383443,0.671025 1.040773,1.081856 0.671025,0.410832 1.465299,0.410832 0.506693,0 0.944913,-0.178027 0.43822,-0.164333 0.766886,-0.479304 0.328665,-0.314971 0.506692,-0.753191 0.191721,-0.43822 0.191721,-0.958607 0,-0.506692 -0.178027,-0.917524 -0.178027,-0.424525 -0.492998,-0.725802 -0.314971,-0.301276 -0.739496,-0.465609 -0.410832,-0.164333 -0.90383,-0.164333 -0.65733,0 -1.232494,0.287582 -0.56147,0.273888 -0.917524,0.807969 h -0.862746 q 0.01369,-0.08217 0.06847,-0.369748 0.05478,-0.287582 0.136943,-0.684719 0.08217,-0.397138 0.178027,-0.876441 0.09586,-0.492998 0.191722,-0.985996 0.232804,-1.150328 0.506692,-2.56085 h 4.697174 v 0.862747 h -3.99876 l -0.671025,3.492068 q 0.356054,-0.383443 0.862746,-0.588859 0.520387,-0.21911 1.136634,-0.21911 z"
      id="width_75-path5149" inkscape:connector-curvature="0" />
      <path d="m 21.128119,23.016603 q -0.424525,0 -0.794274,-0.150638 -0.369748,-0.150638 -0.65733,-0.410831 -0.273888,-0.273888 -0.438221,-0.629942 -0.150638,-0.356054 -0.150638,-0.766886 0,-0.410831 0.150638,-0.766885 0.164333,-0.356054 0.438221,-0.616247 0.287582,-0.273888 0.65733,-0.424526 0.369749,-0.164333 0.794274,-0.164333 0.424526,0 0.794275,0.164333 0.383443,0.150638 0.65733,0.424526 0.273888,0.260193 0.438221,0.616247 0.164332,0.356054 0.164332,0.766885 0,0.410832 -0.164332,0.766886 -0.164333,0.356054 -0.438221,0.629942 -0.273887,0.260193 -0.65733,0.410831 -0.369749,0.150638 -0.794275,0.150638 z m 0,-0.534081 q 0.287583,0 0.534081,-0.109555 0.246499,-0.123249 0.424526,-0.314971 0.191722,-0.205415 0.287582,-0.451914 0.109556,-0.260194 0.109556,-0.547776 0,-0.301276 -0.109556,-0.561469 -0.109555,-0.260194 -0.301276,-0.451915 -0.191721,-0.191721 -0.43822,-0.301277 -0.246499,-0.109555 -0.506693,-0.109555 -0.273887,0 -0.520386,0.12325 -0.246499,0.109555 -0.43822,0.314971 -0.178027,0.191721 -0.287583,0.451914 -0.09586,0.246499 -0.09586,0.534081 0,0.287582 0.109555,0.547776 0.109555,0.260193 0.287582,0.465609 0.191721,0.191721 0.424526,0.301276 0.246499,0.109555 0.520386,0.109555 z m 4.601314,6.600694 q -0.424526,0 -0.794275,-0.150638 -0.369748,-0.150639 -0.65733,-0.410832 -0.273888,-0.273888 -0.43822,-0.629942 -0.150639,-0.369748 -0.150639,-0.78058 0,-0.410831 0.150639,-0.766885 0.164332,-0.356054 0.43822,-0.616247 0.287582,-0.273888 0.65733,-0.424526 0.369749,-0.150639 0.794275,-0.150639 0.424526,0 0.794274,0.150639 0.369748,0.150638 0.643636,0.424526 0.287582,0.260193 0.43822,0.616247 0.164333,0.356054 0.164333,0.766885 0,0.410832 -0.164333,0.78058 -0.150638,0.356054 -0.43822,0.629942 -0.273888,0.260193 -0.643636,0.410832 -0.369748,0.150638 -0.794274,0.150638 z m 0,-0.547776 q 0.287582,0 0.520386,-0.109555 0.246499,-0.123249 0.424526,-0.314971 0.191722,-0.191721 0.287582,-0.451914 0.109555,-0.260194 0.109555,-0.547776 0,-0.287582 -0.109555,-0.547775 -0.109555,-0.260193 -0.301276,-0.451915 -0.178027,-0.205415 -0.424526,-0.314971 -0.246499,-0.109555 -0.506692,-0.109555 -0.287582,0 -0.534081,0.12325 -0.232805,0.109555 -0.424526,0.314971 -0.178027,0.191721 -0.287582,0.451914 -0.09586,0.246499 -0.09586,0.534081 0,0.602553 0.383443,1.013385 0.397137,0.410831 0.958606,0.410831 z m -6.313112,0.04108 3.834428,-4.656091 3.711178,-4.751952 0.479304,0.410832 -3.807039,4.656091 -3.738567,4.765645 z"
      id="width_75-path5151" inkscape:connector-curvature="0" /> </g>
    <rect id="width_75-rect4546" width="22.567938" height="19.013317" x="0.078568928" y="0.10162705" />
    <rect id="width_75-rect4548" width="8.1991425" height="1.6533318" x="23.620663" y="0.5608865" />
    <rect id="width_75-rect4550" width="7.549706" height="1.8370353" x="23.539482" y="3.2245872" />
    <rect id="width_75-rect4552" width="8.0367851" height="1.56148" x="23.620663" y="6.1638432" />
    <rect id="width_75-rect4548-2" width="8.1991425" height="1.6533318" x="23.458302" y="8.8275452" />
    <rect id="width_75-rect4550-7" width="7.549706" height="1.8370353" x="23.377123" y="11.491246" />
    <rect id="width_75-rect4552-7" width="8.0367851" height="1.56148" x="23.458302" y="14.430503" /> </symbol>
</svg>