<svg xmlns:dc="http://purl.org/dc/elements/1.1/" xmlns:cc="http://creativecommons.org/ns#" xmlns:rdf="http://www.w3.org/1999/02/22-rdf-syntax-ns#" xmlns:svg="http://www.w3.org/2000/svg" xmlns="http://www.w3.org/2000/svg" xmlns:sodipodi="http://sodipodi.sourceforge.net/DTD/sodipodi-0.dtd"
xmlns:inkscape="http://www.inkscape.org/namespaces/inkscape">
  <defs>
    <path d="M0 0h24v24H0V0z" id="drag-handle-a" /> </defs>
  <symbol viewBox="0 0 32 32" id="add-block">
    <title>add-block</title>
    <metadata id="add-block-metadata837">
      <rdf:RDF>
        <cc:Work rdf:about="">
          <dc:format>image/svg+xml</dc:format>
          <dc:type rdf:resource="http://purl.org/dc/dcmitype/StillImage" />
          <dc:title>add-block</dc:title>
        </cc:Work>
      </rdf:RDF>
    </metadata>
    <sodipodi:namedview pagecolor="#ffffff" bordercolor="#666666" borderopacity="1" objecttolerance="10" gridtolerance="10" guidetolerance="10" inkscape:pageopacity="0" inkscape:pageshadow="2" inkscape:window-width="1442" inkscape:window-height="1177"
    id="add-block-namedview833" showgrid="false" inkscape:zoom="13.976407" inkscape:cx="10.719205" inkscape:cy="21.17039" inkscape:window-x="373" inkscape:window-y="190" inkscape:window-maximized="0" inkscape:current-layer="svg831" />
    <path d="M 16,32 C 24.837,32 32,24.837 32,16 32,7.163 24.837,0 16,0 7.163,0 0,7.163 0,16 0,24.837 7.163,32 16,32 Z m 0,-1.164 C 7.806,30.836 1.164,24.194 1.164,16 1.164,7.806 7.806,1.164 16,1.164 c 8.194,0 14.836,6.642 14.836,14.836 0,8.194 -6.642,14.836 -14.836,14.836 z"
    id="add-block-path827" inkscape:connector-curvature="0" />
    <path d="m 23.855,16.291 c 0,0.345 -0.037,0.641 -0.111,0.887 -0.074,0.246 -0.292,0.37 -0.653,0.37 h -5.543 v 5.568 c 0,0.345 -0.123,0.554 -0.37,0.628 -0.247,0.074 -0.542,0.111 -0.887,0.111 -0.345,0 -0.641,-0.037 -0.887,-0.111 -0.246,-0.074 -0.37,-0.283 -0.37,-0.628 V 17.548 H 9.491 c -0.361,0 -0.579,-0.123 -0.653,-0.37 -0.074,-0.247 -0.111,-0.542 -0.111,-0.887 0,-0.345 0.037,-0.641 0.111,-0.887 0.074,-0.246 0.292,-0.37 0.653,-0.37 h 5.543 V 9.491 c 0,-0.345 0.123,-0.558 0.37,-0.641 0.247,-0.083 0.542,-0.123 0.887,-0.123 0.345,0 0.641,0.041 0.887,0.123 0.246,0.082 0.37,0.296 0.37,0.641 v 5.543 h 5.543 c 0.361,0 0.579,0.123 0.653,0.37 0.074,0.247 0.111,0.542 0.111,0.887 v 0 z"
    id="add-block-path829" inkscape:connector-curvature="0" /> </symbol>
  <symbol viewBox="0 0 21 32" id="back">
    <title>back</title>
    <path fill="#444" d="M16 31.084l5.028-5.028-10.055-10.057 10.055-10.057-5.028-5.028-15.084 15.084 15.084 15.084z" /> </symbol>
  <symbol viewBox="0 0 32 32" id="bin">
    <title>bin</title>
    <path fill="#444" d="M5.333 11.733h21.333v2.133h-21.333zM5.333 7.467h21.333v2.133h-21.333zM10.667 5.333h10.667v2.133h-10.667zM9.6 13.867h12.8v12.8h-12.8z" /> </symbol>
  <symbol viewBox="0 0 30 32" id="binopen">
    <title>binopen</title>
    <path fill="#444" d="M12.114 0.414l14.142 14.142-1.414 1.414-14.142-14.142zM17.064 2.535l7.071 7.071-1.414 1.415-7.072-7.072zM5 18h20v2h-20zM9 20h12v12h-12z" /> </symbol>
  <symbol viewBox="0 0 29 32" id="bottom">
    <title>bottom</title>
    <path fill="#444" d="M0 32v-2.909h29.091v2.909h-29.091z" />
    <path fill="#444" d="M13.091 29.091v-29.091h2.909v29.091h-2.909z" />
    <path fill="#444" d="M14.545 30.545l8.727-8.727h-17.455z" /> </symbol>
  <symbol viewBox="0 0 32 32" id="box_caution">
    <title>box_caution</title>
    <sodipodi:namedview pagecolor="#ffffff" bordercolor="#666666" borderopacity="1" objecttolerance="10" gridtolerance="10" guidetolerance="10" inkscape:pageopacity="0" inkscape:pageshadow="2" inkscape:window-width="1656" inkscape:window-height="936"
    id="box_caution-namedview825" showgrid="false" inkscape:zoom="19.28125" inkscape:cx="7.625532" inkscape:cy="15.34332" inkscape:window-x="66" inkscape:window-y="9" inkscape:window-maximized="0" inkscape:current-layer="svg827" />
    <metadata id="box_caution-metadata833">
      <rdf:RDF>
        <cc:Work rdf:about="">
          <dc:format>image/svg+xml</dc:format>
          <dc:type rdf:resource="http://purl.org/dc/dcmitype/StillImage" />
          <dc:title/> </cc:Work>
      </rdf:RDF>
    </metadata>
    <path id="box_caution-path5649" d="M 16.025932,-2.7233263e-4 0.07429796,31.960975 H 31.977566 M 16.025932,6.7284115 26.945551,28.596633 H 5.1063132 m 9.4694708,-15.13954 v 6.728685 h 2.900297 V 13.457093 M 14.575784,23.55012 v 3.364343 h 2.900297 V 23.55012"
    inkscape:connector-curvature="0" />
    <path id="box_caution-path5649-7" d="M 0.07983626,-0.00157734 V 6.7271075 H 1.9428561 v -6.72868484" inkscape:connector-curvature="0" sodipodi:nodetypes="cccc" /> </symbol>
  <symbol viewBox="0 0 32 32" id="box_danger">
    <title>box_danger</title>
    <sodipodi:namedview pagecolor="#ffffff" bordercolor="#666666" borderopacity="1" objecttolerance="10" gridtolerance="10" guidetolerance="10" inkscape:pageopacity="0" inkscape:pageshadow="2" inkscape:window-width="1834" inkscape:window-height="1055"
    id="box_danger-namedview825" showgrid="false" inkscape:zoom="19.28125" inkscape:cx="23.48704" inkscape:cy="11.660986" inkscape:window-x="114" inkscape:window-y="52" inkscape:window-maximized="0" inkscape:current-layer="svg827" />
    <metadata id="box_danger-metadata833">
      <rdf:RDF>
        <cc:Work rdf:about="">
          <dc:format>image/svg+xml</dc:format>
          <dc:type rdf:resource="http://purl.org/dc/dcmitype/StillImage" />
          <dc:title/> </cc:Work>
      </rdf:RDF>
    </metadata>
    <path id="box_danger-path5649" d="M 16,0.01937571 0.04836583,31.980624 H 31.951634 M 16,6.7480595 26.919619,28.616282 H 5.0803811 m 9.4694709,-15.13954 v 6.728685 h 2.900297 v -6.728685 m -2.900297,10.093027 v 3.364343 h 2.900297 v -3.364343" inkscape:connector-curvature="0"
    />
    <path id="box_danger-path5649-7" d="M 0.05390413,0.01807106 V 6.7467561 H 1.916924 V 0.01807106" inkscape:connector-curvature="0" sodipodi:nodetypes="cccc" />
    <path id="box_danger-path5649-7-1" d="M 2.802688,0.00680821 V 6.7354931 H 4.6657079 V 0.00680821" inkscape:connector-curvature="0" sodipodi:nodetypes="cccc" />
    <path id="box_danger-path5649-7-4" d="M 5.6033365,0.00680824 V 6.7354935 H 7.4663564 V 0.00680824" inkscape:connector-curvature="0" sodipodi:nodetypes="cccc" /> </symbol>
  <symbol viewBox="0 0 32 32" id="box_info">
    <title>box_info</title>
    <sodipodi:namedview pagecolor="#ffffff" bordercolor="#666666" borderopacity="1" objecttolerance="10" gridtolerance="10" guidetolerance="10" inkscape:pageopacity="0" inkscape:pageshadow="2" inkscape:window-width="1419" inkscape:window-height="967"
    id="box_info-namedview825" showgrid="false" inkscape:zoom="19.28125" inkscape:cx="8.03759" inkscape:cy="17.417875" inkscape:window-x="770" inkscape:window-y="383" inkscape:window-maximized="0" inkscape:current-layer="svg827" />
    <metadata id="box_info-metadata833">
      <rdf:RDF>
        <cc:Work rdf:about="">
          <dc:format>image/svg+xml</dc:format>
          <dc:type rdf:resource="http://purl.org/dc/dcmitype/StillImage" />
          <dc:title/> </cc:Work>
      </rdf:RDF>
    </metadata>
    <path inkscape:connector-curvature="0" d="M 28.214181,6.510521 26.176075,4.472415 23.588692,7.074252 25.626798,9.1123583 Z M 17.445465,0.858752 h -2.89093 v 4.264122 h 2.89093 z m 10.118257,17.273309 h 4.336395 v -2.89093 H 27.563722 Z M 11.663604,24.18856 v 6.952688 h 8.672792 V 24.18856 c 2.587382,-1.503283 4.336395,-4.293031 4.336395,-7.501964 0,-4.78449 -3.888301,-8.672791 -8.672791,-8.672791 -4.78449,0 -8.672791,3.888301 -8.672791,8.672791 0,3.208933 1.749013,5.998681 4.336395,7.501964 z M 4.436278,18.132061 v -2.89093 H 0.099883 v 2.89093 z M 8.425762,7.059798 5.83838,4.45796 3.800274,6.496066 6.402111,9.0834489 Z"
    id="box_info-path4-1" /> </symbol>
  <symbol viewBox="0 0 32 32" id="box_notice">
    <title>box_notice</title>
    <sodipodi:namedview pagecolor="#ffffff" bordercolor="#666666" borderopacity="1" objecttolerance="10" gridtolerance="10" guidetolerance="10" inkscape:pageopacity="0" inkscape:pageshadow="2" inkscape:window-width="1419" inkscape:window-height="967"
    id="box_notice-namedview825" showgrid="false" inkscape:zoom="19.28125" inkscape:cx="8.03759" inkscape:cy="17.417875" inkscape:window-x="118" inkscape:window-y="411" inkscape:window-maximized="0" inkscape:current-layer="svg827" />
    <metadata id="box_notice-metadata833">
      <rdf:RDF>
        <cc:Work rdf:about="">
          <dc:format>image/svg+xml</dc:format>
          <dc:type rdf:resource="http://purl.org/dc/dcmitype/StillImage" />
          <dc:title/> </cc:Work>
      </rdf:RDF>
    </metadata>
    <path id="box_notice-path6299" d="m 14.403567,11.210696 h 3.192868 V 8.0178273 h -3.192868 m 1.596434,20.7536467 c -7.0402759,0 -12.7714769,-5.731199 -12.7714769,-12.771475 0,-7.0402755 5.731201,-12.7714733 12.7714769,-12.7714733 7.040276,0 12.771475,5.7311978 12.771475,12.7714733 0,7.040276 -5.731199,12.771475 -12.771475,12.771475 m 0,-28.7358171 A 15.964344,15.964344 0 0 0 0.03565531,15.999999 15.964344,15.964344 0 0 0 16.000001,31.964343 15.964344,15.964344 0 0 0 31.964345,15.999999 15.964344,15.964344 0 0 0 16.000001,0.0356569 M 14.403567,23.982171 h 3.192868 v -9.578606 h -3.192868 z"
    inkscape:connector-curvature="0" /> </symbol>
  <symbol viewBox="0 0 32 32" id="box_warning">
    <title>box_warning</title>
    <sodipodi:namedview pagecolor="#ffffff" bordercolor="#666666" borderopacity="1" objecttolerance="10" gridtolerance="10" guidetolerance="10" inkscape:pageopacity="0" inkscape:pageshadow="2" inkscape:window-width="1366" inkscape:window-height="903"
    id="box_warning-namedview825" showgrid="false" inkscape:zoom="19.28125" inkscape:cx="13.201945" inkscape:cy="15.34332" inkscape:window-x="66" inkscape:window-y="9" inkscape:window-maximized="0" inkscape:current-layer="svg827" />
    <metadata id="box_warning-metadata833">
      <rdf:RDF>
        <cc:Work rdf:about="">
          <dc:format>image/svg+xml</dc:format>
          <dc:type rdf:resource="http://purl.org/dc/dcmitype/StillImage" />
          <dc:title/> </cc:Work>
      </rdf:RDF>
    </metadata>
    <path id="box_warning-path5649" d="M 16.025932,-2.7246263e-4 0.07429792,31.960977 H 31.977566 M 16.025932,6.7284115 26.945551,28.596635 H 5.1063132 m 9.4694708,-15.13954 v 6.728685 h 2.900297 v -6.728685 m -2.900297,10.093027 v 3.364343 h 2.900297 v -3.364343"
    inkscape:connector-curvature="0" />
    <path id="box_warning-path5649-7" d="M 0.07983622,-0.00157706 V 6.7271081 H 1.9428561 v -6.72868516" inkscape:connector-curvature="0" sodipodi:nodetypes="cccc" />
    <path id="box_warning-path5649-7-1" d="M 2.8286201,-0.01283996 V 6.7158451 H 4.69164 v -6.72868506" inkscape:connector-curvature="0" sodipodi:nodetypes="cccc" /> </symbol>
  <symbol viewBox="0 0 32 32" id="box">
    <title>box</title>
    <sodipodi:namedview pagecolor="#ffffff" bordercolor="#666666" borderopacity="1" objecttolerance="10" gridtolerance="10" guidetolerance="10" inkscape:pageopacity="0" inkscape:pageshadow="2" inkscape:window-width="1419" inkscape:window-height="967"
    id="box-namedview825" showgrid="false" inkscape:zoom="19.28125" inkscape:cx="16" inkscape:cy="16" inkscape:window-x="1088" inkscape:window-y="64" inkscape:window-maximized="0" inkscape:current-layer="svg827" />
    <metadata id="box-metadata833">
      <rdf:RDF>
        <cc:Work rdf:about="">
          <dc:format>image/svg+xml</dc:format>
          <dc:type rdf:resource="http://purl.org/dc/dcmitype/StillImage" />
          <dc:title/> </cc:Work>
      </rdf:RDF>
    </metadata>
    <path inkscape:connector-curvature="0" d="M 31.951377,28.406627 V 3.5756494 c 0,-1.9673365 -1.577414,-3.50930298 -3.54475,-3.50930298 L 3.5933732,0.04862267 c -1.9496128,0 -3.54475067,1.55969023 -3.54475067,3.52702673 V 28.406627 c 0,1.949613 1.59513787,3.54475 3.54475067,3.54475 H 28.406627 c 1.967336,0 3.54475,-1.595137 3.54475,-3.54475 z M 7.6747703,3.5756494 H 28.406627 V 28.406627 H 7.6747703 M 3.784981,14.989735 c -1.7706588,0.038 -2.6819973,-1.148068 -2.6720688,-3.190707 0.00993,-2.04264 0.8970143,-3.210769 2.7757965,-3.1907083 1.8787822,0.020061 2.558617,1.1417253 2.5931929,3.0351163 0.034576,1.893391 -0.9262618,3.308305 -2.6969206,3.346299 z"
    id="box-path2" sodipodi:nodetypes="ssccssssscccczzzzz" />
    <g id="box-g855" transform="matrix(1.9767457,0,0,1.2655187,23.966534,4.4685059)">
      <rect y="0.94571543" x="-7.089633" height="1.6533318" width="8.1991425" id="box-rect4548" />
      <rect y="3.609416" x="-7.1708136" height="1.8370353" width="7.549706" id="box-rect4550" />
      <rect y="6.5486722" x="-7.089633" height="1.56148" width="8.0367851" id="box-rect4552" />
      <rect y="9.2123747" x="-7.2519941" height="1.6533318" width="8.1991425" id="box-rect4548-2" />
      <rect y="11.876076" x="-7.3331728" height="1.8370353" width="7.549706" id="box-rect4550-7" />
      <rect y="14.815333" x="-7.2519941" height="1.56148" width="8.0367851" id="box-rect4552-7" /> </g>
  </symbol>
  <symbol viewBox="0 0 32 32" id="bump">
    <title>bump</title>
    <path fill="#444" d="M18.133 12h6.513l-8.533-8-8.533 8h6.287v8.333h4.267v-8.333zM5.333 22.4h21.333v4.267h-21.333z" /> </symbol>
  <symbol viewBox="0 0 36 32" id="center-align">
    <title>center-align</title>
    <path fill="#444" d="M0 0v3.556h35.556v-3.556h-35.556z" />
    <path fill="#444" d="M0 14.222v3.556h35.556v-3.556h-35.556z" />
    <path fill="#444" d="M0 28.444v3.556h35.556v-3.556h-35.556z" />
    <path fill="#444" d="M7.111 7.111v3.556h21.333v-3.556h-21.333z" />
    <path fill="#444" d="M7.111 21.333v3.556h21.333v-3.556h-21.333z" /> </symbol>
  <symbol viewBox="0 0 32 32" id="code">
    <title>code</title>
    <path fill="#444" d="M24.060 10.631l5.843 5.83v-0.906l-5.822 5.818 0.905 0.905 6.275-6.271-6.297-6.283-0.904 0.906z" />
    <path fill="#444" d="M6.991 9.725l-6.297 6.283 6.275 6.271 0.905-0.905-5.822-5.818v0.906l5.843-5.83-0.904-0.906z" />
    <path fill="#444" d="M12.317 25.41l8.408-18.885-1.169-0.521-8.668 19.469 1.169 0.521 0.26-0.585z" /> </symbol>
  <symbol viewBox="0 0 32 32" id="competition">
    <title>competition</title>
    <path fill="#444" d="M7.655 27.401l1.582-9.224-6.702-6.532 9.261-1.346 4.142-8.392 4.142 8.392 9.261 1.346-6.702 6.532 1.582 9.224-8.284-4.355zM5.287 12.539l5.326 5.192-1.257 7.331 6.584-3.461 6.584 3.461-1.257-7.331 5.326-5.192-7.361-1.070-3.292-6.67-3.292 6.67-0.666 0.097z"
    /> </symbol>
  <symbol viewBox="0 0 32 32" id="cross">
    <title>cross</title>
    <path fill="#444" d="M6.949 22.034l3.017 3.017 15.085-15.085-3.017-3.017-15.085 15.085zM9.966 6.949l-3.017 3.017 15.085 15.085 3.017-3.017-15.085-15.085z" /> </symbol>
  <symbol viewBox="0 0 32 32" id="default">
    <title>default</title>
    <path fill="#444" d="M11.429 11.429h9.143v9.143h-9.143v-9.143z" />
    <path fill="#444" d="M0 11.429h9.143v9.143h-9.143v-9.143z" />
    <path fill="#444" d="M0 0h9.143v9.143h-9.143v-9.143z" />
    <path fill="#444" d="M22.857 0h9.143v9.143h-9.143v-9.143z" />
    <path fill="#444" d="M11.429 0h9.143v9.143h-9.143v-9.143z" />
    <path fill="#444" d="M0 22.857h9.143v9.143h-9.143v-9.143z" />
    <path fill="#444" d="M22.857 22.517h9.143v9.143h-9.143v-9.143z" />
    <path fill="#444" d="M11.429 22.517h9.143v9.143h-9.143v-9.143z" />
    <path fill="#444" d="M22.857 11.429h9.143v9.143h-9.143v-9.143z" /> </symbol>
  <symbol viewBox="0 0 24 24" id="delete">
    <title>delete</title>
    <metadata id="delete-metadata2546">
      <rdf:RDF>
        <cc:Work rdf:about="">
          <dc:format>image/svg+xml</dc:format>
          <dc:type rdf:resource="http://purl.org/dc/dcmitype/StillImage" /> </cc:Work>
      </rdf:RDF>
    </metadata>
    <sodipodi:namedview pagecolor="#ffffff" bordercolor="#666666" borderopacity="1" objecttolerance="10" gridtolerance="10" guidetolerance="10" inkscape:pageopacity="0" inkscape:pageshadow="2" inkscape:window-width="1227" inkscape:window-height="849"
    id="delete-namedview2542" showgrid="false" inkscape:zoom="4.9166667" inkscape:cx="-1.3220339" inkscape:cy="24" inkscape:window-x="963" inkscape:window-y="154" inkscape:window-maximized="0" inkscape:current-layer="svg2540" />
    <path d="m 4.1016946,21.214689 c 0,1.448023 1.1847456,2.632769 2.6327682,2.632769 H 17.265536 c 1.448024,0 2.63277,-1.184746 2.63277,-2.632769 V 5.4180789 H 4.1016946 Z M 7.3399996,11.842034 9.1961012,9.9859321 12,12.776666 l 2.790734,-2.7907339 1.856102,1.8561019 -2.790734,2.790734 2.790734,2.790735 -1.856102,1.856101 L 12,16.48887 9.2092652,19.279604 7.3531634,17.423503 10.143898,14.632768 Z M 16.607344,1.4689264 15.29096,0.15254219 H 8.7090392 L 7.392655,1.4689264 H 2.7853104 V 4.1016947 H 21.21469 V 1.4689264 Z"
    id="delete-path2536" inkscape:connector-curvature="0" /> </symbol>
  <symbol viewBox="0 0 32 32" id="down">
    <title>down</title>
    <path fill="#444" d="M0.093 6.37q0.204-0.37 0.574-0.37h30.667q0.37 0 0.574 0.37t-0.056 0.704l-15.333 18.667q-0.222 0.259-0.518 0.259-0.37 0-0.518-0.259l-15.333-18.667q-0.259-0.333-0.056-0.704z" /> </symbol>
  <symbol viewBox="0 0 24 24" id="drag-handle">
    <title>drag-handle</title>
    <metadata id="drag-handle-metadata3113">
      <rdf:RDF>
        <cc:Work rdf:about="">
          <dc:format>image/svg+xml</dc:format>
          <dc:type rdf:resource="http://purl.org/dc/dcmitype/StillImage" /> </cc:Work>
      </rdf:RDF>
    </metadata>
    <sodipodi:namedview pagecolor="#ffffff" bordercolor="#666666" borderopacity="1" objecttolerance="10" gridtolerance="10" guidetolerance="10" inkscape:pageopacity="0" inkscape:pageshadow="2" inkscape:window-width="1430" inkscape:window-height="905"
    id="drag-handle-namedview3109" showgrid="false" inkscape:zoom="6.9532168" inkscape:cx="27.857168" inkscape:cy="22.283803" inkscape:window-x="114" inkscape:window-y="52" inkscape:window-maximized="0" inkscape:current-layer="svg3107" />
    <path id="drag-handle-path831" d="M 23.945962,7.520265 H 0.05403757 v 2.986491 H 23.945962 Z M 0.05403757,16.479735 H 23.945962 v -2.98649 H 0.05403757 Z" clip-path="url(#b)" inkscape:connector-curvature="0" /> </symbol>
  <symbol viewBox="0 0 32 32" id="edit">
    <title>edit</title>
    <path fill="#444" d="M8.785 18.591l11.792-11.67 4.189 4.192-11.714 11.697-4.267 0.035zM28.089 8.245l-2.209 2.22-4.374-4.377 2.208-2.22 1.028 0.009 3.331 3.263zM4.8 8h-2.133v21.333h21.333v-10.632l-4.267 4.274v2.091h-12.8v-12.8h2.133l4.262-4.267h-8.529z"
    /> </symbol>
  <symbol viewBox="0 0 32 32" id="embed">
    <title>embed</title>
    <path fill="#444" d="M7.040 11.488h22.016v-3.84h-22.016v3.84zM27.794 8.934l0.026 1.239-19.527 0.015 0.001-1.284 19.5 0.030zM0.64 17.888h30.72v-3.84h-30.72v3.84zM1.892 15.412l28.146-0.094-0.003 1.306-28.13-0.002-0.013-1.21zM0.704 24.288h20.544v-3.84h-20.544v3.84zM19.967 21.769l0.002 1.286-18.013-0.005 0.024-1.318 17.987 0.037zM27.015 22.822l0.451-0.452-3.261-3.27-0.906 0.904 2.375 2.343-2.385 2.395 0.906 0.905 2.821-2.824zM1.136 9.178l-0.451 0.452 3.261 3.27 0.906-0.904-2.416-2.363 2.426-2.374-0.906-0.905-2.821 2.824z"
    /> </symbol>
  <symbol viewBox="0 0 32 32" id="emphasis">
    <title>emphasis</title>
    <path fill="#444" d="M31.394 27.52v-1.28h-30.722v1.28h30.722z" />
    <path fill="#444" d="M31.426 5.824v-1.28h-30.722v1.28h30.722z" />
    <path fill="#444" d="M30.087 16.64v-1.28h-11.778v1.28h11.778z" />
    <path fill="#444" d="M26.16 21.696v-1.28h-7.851v1.28h7.851z" />
    <path fill="#444" d="M26.16 11.52v-1.28h-7.851v1.28h7.851z" />
    <path fill="#444" d="M15.168 9.824v-1.28h-12.416v1.28h12.416z" />
    <path fill="#444" d="M8 12.416v-1.28h-5.248v1.28h5.248z" />
    <path fill="#444" d="M7.104 23.55h1.28v-12.414h-1.28v12.414z" />
    <path fill="#444" d="M9.664 23.55h1.28v-12.414h-1.28v12.414z" />
    <path fill="#444" d="M12.229 24.032v-1.28h-6.4v1.28h6.4z" />
    <path fill="#444" d="M1.984 7.232h1.28v6.4h-1.28v-6.4z" />
    <path fill="#444" d="M14.784 7.232h1.28v6.4h-1.28v-6.4z" />
    <path fill="#444" d="M16.064 12.416v-1.28h-6.4v1.28h6.4z" /> </symbol>
  <symbol viewBox="0 0 17 32" id="file">
    <title>file</title>
    <path fill="#444" d="M9.65 12.281c0 0.441 0 0.441 0 2.122 0 1.34 0 1.34 0 2.844 0 2.937 0 2.937 0 4.656 0 1.095-0.789 1.727-1.813 1.727-1.075 0-1.838-0.589-1.819-1.716 0.013-0.811 0.010-3.096-0.006-7.251-0.002-0.588-0.002-0.588-0.005-1.171-0.017-4.196-0.019-4.725-0.019-5.609 0-1.559 1.422-2.666 3.249-2.666 1.808 0 3.304 1.198 3.304 2.781v14.207c0 2.53-2.051 4.58-4.58 4.58s-4.58-2.051-4.58-4.58v-9.923h-1.259v9.923c0 3.225 2.615 5.84 5.84 5.84s5.84-2.615 5.84-5.84v-14.207c0-2.348-2.113-4.040-4.563-4.040-2.463 0-4.508 1.592-4.508 3.925 0 0.887 0.002 1.415 0.019 5.614 0.002 0.583 0.002 0.583 0.005 1.171 0.016 4.139 0.019 6.428 0.006 7.225-0.032 1.918 1.364 2.997 3.079 2.997 1.666 0 3.073-1.126 3.073-2.986 0-1.719 0-1.719 0-4.656 0-1.504 0-1.504 0-2.844 0-1.68 0-1.68 0-2.122h-1.259z"
    /> </symbol>
  <symbol viewBox="0 0 32 32" id="fmt-bold">
    <title>fmt-bold</title>
    <path fill="#444" d="M13.821 23.040l-1.136-3.729h-5.711l-1.136 3.729h-3.579l5.529-15.729h4.061l5.55 15.729h-3.579zM11.893 16.526c-1.050-3.379-1.641-5.289-1.773-5.732s-0.227-0.793-0.284-1.050c-0.236 0.914-0.911 3.175-2.025 6.782h4.082zM26.721 23.040l-0.632-1.629h-0.086c-0.55 0.693-1.116 1.173-1.698 1.441s-1.341 0.402-2.277 0.402c-1.15 0-2.055-0.329-2.716-0.986s-0.991-1.593-0.991-2.807c0-1.271 0.445-2.209 1.334-2.813s2.23-0.938 4.023-1.002l2.079-0.064v-0.525c0-1.214-0.621-1.821-1.864-1.821-0.957 0-2.082 0.289-3.375 0.868l-1.082-2.207c1.379-0.721 2.907-1.082 4.586-1.082 1.607 0 2.839 0.35 3.696 1.050s1.286 1.764 1.286 3.193v7.982h-2.282zM25.757 17.49l-1.264 0.043c-0.95 0.029-1.657 0.2-2.121 0.514s-0.696 0.793-0.696 1.436c0 0.921 0.529 1.382 1.586 1.382 0.757 0 1.363-0.218 1.816-0.654s0.68-1.014 0.68-1.736v-0.986z"
    /> </symbol>
  <symbol viewBox="0 0 32 32" id="fmt-heading">
    <title>fmt-heading</title>
    <path fill="#444" d="M17.716 23.040h-3.311v-6.761h-6.204v6.761h-3.321v-15.664h3.321v6.139h6.204v-6.139h3.311v15.664z" /> </symbol>
  <symbol viewBox="0 0 32 32" id="fmt-italic">
    <title>fmt-italic</title>
    <path fill="#444" d="M13.336 18.058h-5.314l-2.625 4.982h-2.025l8.561-15.664h1.864l1.971 15.664h-1.821l-0.611-4.982zM13.143 16.386l-0.375-3.204c-0.171-1.279-0.275-2.529-0.311-3.75-0.264 0.629-0.552 1.254-0.863 1.875s-1.202 2.314-2.673 5.079h4.221zM23.654 11.083c0.657 0 1.243 0.177 1.757 0.53s0.914 0.863 1.2 1.527h0.118l0.718-1.843h1.361l-2.496 11.743h-1.425l0.279-2.239h-0.086c-1.279 1.636-2.625 2.454-4.039 2.454-0.993 0-1.771-0.354-2.336-1.061s-0.846-1.675-0.846-2.904c0-1.486 0.254-2.864 0.761-4.136s1.207-2.268 2.1-2.989c0.893-0.721 1.871-1.082 2.936-1.082v0zM21.618 21.765c0.693 0 1.382-0.33 2.068-0.991s1.243-1.521 1.671-2.582c0.429-1.061 0.643-2.123 0.643-3.188 0-0.736-0.2-1.321-0.6-1.757s-0.925-0.654-1.575-0.654c-0.743 0-1.434 0.307-2.073 0.921s-1.141 1.446-1.505 2.496c-0.364 1.050-0.546 2.157-0.546 3.321 0 0.814 0.168 1.423 0.504 1.827s0.807 0.605 1.414 0.605v0z"
    /> </symbol>
  <symbol viewBox="0 0 32 32" id="fmt-link">
    <title>fmt-link</title>
    <path fill="#444" d="M12.51 21.61l-0.96 0.983c-0.421 0.406-0.929 0.609-1.522 0.609s-1.101-0.203-1.522-0.609c-0.203-0.203-0.359-0.433-0.468-0.691s-0.164-0.535-0.164-0.831c0-0.281 0.055-0.55 0.164-0.808s0.265-0.488 0.468-0.691l3.559-3.536c0.375-0.359 0.866-0.71 1.475-1.054s1.171-0.258 1.686 0.258c0.234 0.219 0.515 0.328 0.843 0.328s0.601-0.117 0.82-0.351c0.234-0.234 0.351-0.515 0.351-0.843s-0.117-0.609-0.351-0.843c-0.859-0.843-1.877-1.194-3.056-1.054s-2.322 0.765-3.43 1.873l-3.582 3.536c-0.421 0.437-0.749 0.929-0.983 1.475s-0.351 1.116-0.351 1.709c0 0.609 0.117 1.186 0.351 1.733s0.562 1.038 0.983 1.475c0.437 0.437 0.937 0.765 1.499 0.983s1.132 0.328 1.709 0.328c0.578 0 1.143-0.109 1.698-0.328s1.050-0.546 1.487-0.983l0.983-0.983c0.234-0.219 0.351-0.492 0.351-0.82s-0.117-0.609-0.351-0.843c-0.234-0.234-0.515-0.351-0.843-0.351s-0.609 0.109-0.843 0.328v0zM23.351 7.843c-0.937-0.921-1.982-1.401-3.138-1.44s-2.162 0.363-3.021 1.206l-1.218 1.218c-0.234 0.219-0.351 0.492-0.351 0.819s0.117 0.609 0.351 0.843c0.234 0.234 0.515 0.351 0.843 0.351s0.609-0.109 0.843-0.328l1.194-1.218c0.453-0.437 0.941-0.601 1.463-0.492s0.972 0.351 1.346 0.726c0.203 0.203 0.359 0.433 0.468 0.691s0.164 0.535 0.164 0.831c0 0.281-0.055 0.55-0.164 0.808s-0.265 0.488-0.468 0.691l-3.793 3.77c-0.874 0.859-1.538 1.214-1.99 1.065s-0.765-0.316-0.937-0.503c-0.234-0.219-0.515-0.328-0.843-0.328s-0.601 0.117-0.819 0.351c-0.234 0.234-0.351 0.515-0.351 0.843s0.117 0.601 0.351 0.82c0.39 0.406 0.812 0.706 1.264 0.901s0.921 0.293 1.405 0.293c0.578 0 1.171-0.144 1.779-0.433s1.21-0.73 1.803-1.323l3.817-3.77c0.421-0.437 0.749-0.929 0.983-1.475s0.351-1.116 0.351-1.709c0-0.609-0.117-1.186-0.351-1.733s-0.562-1.038-0.983-1.475v0z"
    /> </symbol>
  <symbol viewBox="0 0 32 32" id="fmt-quote">
    <title>fmt-quote</title>
    <path fill="#444" d="M19.034 21.501l2.964-6.069h-4.516v-9.032h9.032v9.032l-2.964 6.069h-4.516zM6.968 21.501l3.034-6.069h-4.516v-9.032h9.032v9.032l-3.034 6.069h-4.516z" /> </symbol>
  <symbol viewBox="0 0 32 32" id="fmt-quote2">
    <title>fmt-quote2</title>
    <path fill="#444" d="M19.034 21.501l2.964-6.069h-4.516v-9.032h9.032v9.032l-2.964 6.069h-4.516zM6.968 21.501l3.034-6.069h-4.516v-9.032h9.032v9.032l-3.034 6.069h-4.516z" /> </symbol>
  <symbol viewBox="0 0 879 1024" id="fmt-superscript">
    <title>superscript</title>
    <path d="M512.571 782.286v95.429h-141.714l-90.857-144-13.714-24c-3.429-4-5.143-8-6.286-12h-1.714c-1.143 4-3.429 8-5.143 12-3.429 6.857-8.571 16-14.286 25.143l-88.571 142.857h-147.429v-95.429h73.143l112.571-166.286-105.714-155.429h-78.286v-96h157.714l79.429 130.286c5.143 8 9.143 16.571 13.143 24 3.429 4 5.143 8 6.286 12h1.714c1.143-4 3.429-8 6.286-12l14.286-24 80-130.286h146.857v96h-71.429l-105.143 152.571 116.571 169.143h62.286zM876.571 394.286v117.714h-293.714l-1.714-15.429c-1.143-8-2.286-18.857-2.286-26.286 0-156 200-169.143 200-252 0-29.714-26.857-49.714-57.143-49.714-21.714 0-41.143 10.286-55.429 22.286-7.429 6.286-14.286 14.286-20.571 21.714l-60-52.571c10.286-14.286 21.714-26.286 36-37.714 24-18.857 58.857-37.143 107.429-37.143 82.857 0 140.571 48.571 140.571 124.571 0 137.143-189.714 148.571-197.714 230.286h132.571v-45.714h72z"
    /> </symbol>
  <symbol viewBox="0 0 32 32" id="fmt-unlink">
    <title>fmt-unlink</title>
    <path fill="#444" d="M13.424 21.61l-0.96 0.983c-0.421 0.406-0.929 0.609-1.522 0.609s-1.101-0.203-1.522-0.609c-0.203-0.203-0.359-0.433-0.468-0.691s-0.164-0.535-0.164-0.831c0-0.281 0.055-0.55 0.164-0.808s0.265-0.488 0.468-0.691l3.559-3.536c0.375-0.359 0.866-0.71 1.475-1.054s1.171-0.258 1.686 0.258c0.234 0.219 0.515 0.328 0.843 0.328s0.601-0.117 0.82-0.351c0.234-0.234 0.351-0.515 0.351-0.843s-0.117-0.609-0.351-0.843c-0.859-0.843-1.877-1.194-3.056-1.054s-2.322 0.765-3.43 1.873l-3.582 3.536c-0.421 0.437-0.749 0.929-0.983 1.475s-0.351 1.116-0.351 1.709c0 0.609 0.117 1.186 0.351 1.733s0.562 1.038 0.983 1.475c0.437 0.437 0.937 0.765 1.499 0.983s1.132 0.328 1.709 0.328c0.578 0 1.143-0.109 1.698-0.328s1.050-0.546 1.487-0.983l0.983-0.983c0.234-0.219 0.351-0.492 0.351-0.82s-0.117-0.609-0.351-0.843c-0.234-0.234-0.515-0.351-0.843-0.351s-0.609 0.109-0.843 0.328v0 0zM24.265 7.843c-0.937-0.921-1.982-1.401-3.138-1.44s-2.162 0.363-3.020 1.206l-1.218 1.218c-0.234 0.219-0.351 0.492-0.351 0.819s0.117 0.609 0.351 0.843c0.234 0.234 0.515 0.351 0.843 0.351s0.609-0.109 0.843-0.328l1.194-1.218c0.453-0.437 0.941-0.601 1.463-0.492s0.972 0.351 1.346 0.726c0.203 0.203 0.359 0.433 0.468 0.691s0.164 0.535 0.164 0.831c0 0.281-0.055 0.55-0.164 0.808s-0.265 0.488-0.468 0.691l-3.793 3.77c-0.874 0.859-1.538 1.214-1.99 1.065s-0.765-0.316-0.937-0.503c-0.234-0.219-0.515-0.328-0.843-0.328s-0.601 0.117-0.819 0.351c-0.234 0.234-0.351 0.515-0.351 0.843s0.117 0.601 0.351 0.82c0.39 0.406 0.812 0.706 1.264 0.901s0.921 0.293 1.405 0.293c0.578 0 1.171-0.144 1.779-0.433s1.21-0.73 1.803-1.323l3.817-3.77c0.421-0.437 0.749-0.929 0.983-1.475s0.351-1.116 0.351-1.709c0-0.609-0.117-1.186-0.351-1.733s-0.562-1.038-0.983-1.475v0 0z"
    />
    <path fill="#444" d="M6.857 17.371h19.657v-2.743h-21.029v2.743h1.371z" /> </symbol>
  <symbol viewBox="0 0 32 32" id="game">
    <title>game</title>
    <path fill="#444" d="M27.33 20.592c-0.724 4.331-4.49 7.632-9.026 7.632-5.055 0-9.152-4.098-9.152-9.152 0-0.546 0.048-1.080 0.139-1.6h-8.267v-7.552h9.937l1.327 1.327 1.327-1.327h5.329v0.022c3.9 0.269 7.128 2.982 8.163 6.619 0.435-0.351 0.991-0.561 1.597-0.561 1.396 0 2.528 1.117 2.528 2.496s-1.132 2.496-2.528 2.496c-0.506 0-0.978-0.147-1.374-0.4v0zM27.456 18.496c0-0.668 0.555-1.216 1.248-1.216s1.248 0.548 1.248 1.216c0 0.668-0.555 1.216-1.248 1.216s-1.248-0.548-1.248-1.216zM10.43 11.2h-8.126v4.992h8.671c-0.351 0.892-0.543 1.863-0.543 2.88 0 4.348 3.524 7.872 7.872 7.872s7.872-3.524 7.872-7.872c0-4.283-3.421-7.768-7.68-7.87v-0.002h-4.35l-1.858 1.858-1.858-1.858z"
    /> </symbol>
  <symbol viewBox="0 0 32 32" id="heading">
    <title>heading</title>
    <metadata id="heading-metadata3208">
      <rdf:RDF>
        <cc:Work rdf:about="">
          <dc:format>image/svg+xml</dc:format>
          <dc:type rdf:resource="http://purl.org/dc/dcmitype/StillImage" /> </cc:Work>
      </rdf:RDF>
    </metadata>
    <sodipodi:namedview pagecolor="#ffffff" bordercolor="#666666" borderopacity="1" objecttolerance="10" gridtolerance="10" guidetolerance="10" inkscape:pageopacity="0" inkscape:pageshadow="2" inkscape:window-width="1132" inkscape:window-height="786"
    id="heading-namedview3204" showgrid="false" inkscape:zoom="14.75" inkscape:cx="16.209055" inkscape:cy="15.726789" inkscape:window-x="690" inkscape:window-y="293" inkscape:window-maximized="0" inkscape:current-layer="svg3202" showguides="true" inkscape:guide-bbox="true"
    />
    <path inkscape:connector-curvature="0" id="heading-path3757" d="M 27.169821,0 V 25.959321 H 21.173584 V 15.319656 H 10.826416 V 25.959321 H 4.8301789 V 0 H 10.826416 V 10.054667 H 21.173584 V 0 Z" />
    <path inkscape:connector-curvature="0" id="heading-path3759" d="M 4.7898701,28.157366 H 27.160756 L 27.142336,32 H 4.7714532 Z" sodipodi:nodetypes="ccccc" /> </symbol>
  <symbol viewBox="0 0 32 32" id="iFrame">
    <title>iFrame</title>
    <path fill="#444" d="M7.008 15.968c0-1.414 1.146-2.56 2.56-2.56s2.56 1.146 2.56 2.56c0 1.414-1.146 2.56-2.56 2.56s-2.56-1.146-2.56-2.56zM10.848 15.968c0-0.707-0.573-1.28-1.28-1.28s-1.28 0.573-1.28 1.28c0 0.707 0.573 1.28 1.28 1.28s1.28-0.573 1.28-1.28zM13.408 15.968c0-1.414 1.146-2.56 2.56-2.56s2.56 1.146 2.56 2.56c0 1.414-1.146 2.56-2.56 2.56s-2.56-1.146-2.56-2.56zM17.248 15.968c0-0.707-0.573-1.28-1.28-1.28s-1.28 0.573-1.28 1.28c0 0.707 0.573 1.28 1.28 1.28s1.28-0.573 1.28-1.28zM19.808 15.968c0-1.414 1.146-2.56 2.56-2.56s2.56 1.146 2.56 2.56c0 1.414-1.146 2.56-2.56 2.56s-2.56-1.146-2.56-2.56zM23.648 15.968c0-0.707-0.573-1.28-1.28-1.28s-1.28 0.573-1.28 1.28c0 0.707 0.573 1.28 1.28 1.28s1.28-0.573 1.28-1.28zM29.602 16.021l-9.797 9.773 0.902 0.908 10.741-10.681-10.78-10.702-0.902 0.908 9.835 9.794zM1.015 15.568l-0.457 0.454 10.742 10.681 0.903-0.908-9.83-9.773 9.867-9.794-0.902-0.908-10.323 10.248z"
    /> </symbol>
  <symbol viewBox="0 0 32 32" id="image">
    <title>image</title>
    <path fill="#444" d="M31.36 4.48v23.040h-30.72v-23.040zM1.92 26.24h28.16v-20.48h-28.16zM18.665 14.883l10.209 10.102h-25.61l0.034-10.733 3.761-3.245 7.707 7.618zM4.548 23.706h21.213l-7.11-7.035-3.898 3.742-7.753-7.664-2.424 2.092zM21.12 11.584c0-1.767 1.433-3.2 3.2-3.2s3.2 1.433 3.2 3.2c0 1.767-1.433 3.2-3.2 3.2s-3.2-1.433-3.2-3.2zM26.24 11.584c0-1.060-0.86-1.92-1.92-1.92s-1.92 0.86-1.92 1.92c0 1.060 0.86 1.92 1.92 1.92s1.92-0.86 1.92-1.92z"
    /> </symbol>
  <symbol viewBox="0 0 32 32" id="instagram">
    <title>instagram</title>
    <path fill="#444" d="M21.056 11.072h3.968v-3.968h-3.968v3.968zM23.744 8.384v1.408h-1.408v-1.408h1.408z" />
    <path fill="#444" d="M5.76 15.36v-9.6h20.48v9.664h-4.516c-0.318-2.845-2.731-5.056-5.66-5.056-2.907 0-5.306 2.178-5.653 4.992h-4.651zM5.76 16.64v9.6h20.48v-9.536h-4.516c-0.318 2.845-2.731 5.056-5.66 5.056-2.951 0-5.378-2.245-5.667-5.12h-4.637zM4.48 27.52h23.040v-23.040h-23.040v23.040zM11.648 16.064c0-2.439 1.977-4.416 4.416-4.416s4.416 1.977 4.416 4.416c0 2.439-1.977 4.416-4.416 4.416s-4.416-1.977-4.416-4.416z"
    /> </symbol>
  <symbol viewBox="0 0 36 32" id="left-align">
    <title>left-align</title>
    <path fill="#444" d="M0 0v3.556h35.556v-3.556h-35.556z" />
    <path fill="#444" d="M0 14.222v3.556h35.556v-3.556h-35.556z" />
    <path fill="#444" d="M0 28.444v3.556h35.556v-3.556h-35.556z" />
    <path fill="#444" d="M0 7.111v3.556h21.333v-3.556h-21.333z" />
    <path fill="#444" d="M0 21.333v3.556h21.333v-3.556h-21.333z" /> </symbol>
  <symbol viewBox="0 0 32 32" id="link">
    <title>link</title>
    <path fill="#444" d="M29.794 2.333l-0.126-0.126c-2.942-2.942-7.756-2.942-10.698 0l-6.816 6.817c-2.942 2.942-2.942 7.756 0 10.697l0.126 0.126c0.245 0.245 0.505 0.466 0.773 0.671l2.495-2.495c-0.291-0.172-0.566-0.377-0.816-0.627l-0.126-0.126c-1.597-1.597-1.597-4.196 0-5.793l6.816-6.816c1.597-1.597 4.196-1.597 5.793 0l0.126 0.126c1.597 1.597 1.597 4.197 0 5.793l-3.084 3.084c0.535 1.322 0.789 2.731 0.767 4.137l4.769-4.769c2.942-2.942 2.942-7.756-0-10.697zM19.72 12.154c-0.245-0.245-0.505-0.466-0.773-0.67l-2.495 2.495c0.291 0.172 0.566 0.377 0.816 0.627l0.126 0.126c1.597 1.597 1.597 4.196 0 5.793l-6.817 6.817c-1.597 1.597-4.196 1.597-5.793 0l-0.126-0.126c-1.597-1.598-1.597-4.196 0-5.793l3.084-3.084c-0.535-1.322-0.789-2.731-0.767-4.137l-4.769 4.769c-2.942 2.942-2.942 7.756 0 10.698l0.126 0.126c2.942 2.942 7.756 2.942 10.698 0l6.816-6.816c2.942-2.942 2.942-7.756 0-10.698l-0.126-0.126z"
    /> </symbol>
  <symbol viewBox="0 0 32 32" id="list_extended">
    <title>list_extended</title>
    <sodipodi:namedview pagecolor="#ffffff" bordercolor="#666666" borderopacity="1" objecttolerance="10" gridtolerance="10" guidetolerance="10" inkscape:pageopacity="0" inkscape:pageshadow="2" inkscape:window-width="1126" inkscape:window-height="771"
    id="list_extended-namedview3790" showgrid="false" inkscape:zoom="7.375" inkscape:cx="19.273925" inkscape:cy="16" inkscape:window-x="628" inkscape:window-y="216" inkscape:window-maximized="0" inkscape:current-layer="svg827" />
    <metadata id="list_extended-metadata833">
      <rdf:RDF>
        <cc:Work rdf:about="">
          <dc:format>image/svg+xml</dc:format>
          <dc:type rdf:resource="http://purl.org/dc/dcmitype/StillImage" />
          <dc:title/> </cc:Work>
      </rdf:RDF>
    </metadata>
    <path id="list_extended-path835-7" d="M 0.24276946,7.3779221 H 3.7443765 V 3.8763151 H 0.24276946 Z m 7.00321404,0 H 31.757231 V 3.8763151 H 7.2459835 Z M 0.24276891,21.120471 H 3.744376 V 17.618864 H 0.24276891 Z m 0,7.003214 H 3.744376 V 24.622078 H 0.24276891 Z m 0,-14.006428 H 3.744376 V 10.615651 H 0.24276891 Z M 7.2459829,21.120471 H 31.757231 V 17.618864 H 7.2459829 Z m 0,7.003214 H 31.757231 V 24.622078 H 7.2459829 Z m 0,-17.508034 v 3.501607 H 31.757231 v -3.501607 z"
    inkscape:connector-curvature="0" /> </symbol>
  <symbol viewBox="0 0 32 32" id="list">
    <title>list</title>
    <path fill="#444" d="M4.48 7.68v3.84h-3.84v-3.84zM1.92 8.96v1.28h1.28v-1.28zM4.48 14.080v3.84h-3.84v-3.84zM1.92 15.36v1.28h1.28v-1.28zM4.48 20.48v3.84h-3.84v-3.84zM1.92 23.040h1.28v-1.28h-1.28zM26.24 7.68v3.84h-19.2v-3.84zM8.32 10.24h16.64v-1.28h-16.64zM31.36 14.080v3.84h-24.32v-3.84zM8.32 15.36v1.28h21.76v-1.28zM22.4 20.48v3.84h-15.36v-3.84zM8.32 21.76v1.28h12.8v-1.28z"
    /> </symbol>
  <symbol viewBox="0 0 25 32" id="middle">
    <title>middle</title>
    <path fill="#444" d="M0 14.769v2.462h24.615v-2.462h-24.615z" />
    <path fill="#444" d="M11.077 0v32h2.462v-32h-2.462z" />
    <path fill="#444" d="M12.308 16l7.385-7.385h-14.769z" />
    <path fill="#444" d="M12.308 16l7.385 7.385h-14.769z" /> </symbol>
  <symbol viewBox="0 0 36 32" id="minus">
    <title>minus</title>
    <path fill="#444" d="M0 12.444v7.111h35.556v-7.111h-35.556z" /> </symbol>
  <symbol viewBox="0 0 32 32" id="move-up-down">
    <title>move-up-down</title>
    <path fill="#444" d="M0 19.101l8.713-8.714 8.713 8.714-2.511 2.511-6.202-6.204-6.202 6.204-2.511-2.511zM14.571 12.9l2.512-2.513 6.201 6.203 6.203-6.203 2.514 2.513-8.716 8.711-8.714-8.711z" /> </symbol>
  <symbol viewBox="0 0 33 32" id="move">
    <title>move</title>
    <metadata id="move-metadata6378">
      <rdf:RDF>
        <cc:Work rdf:about="">
          <dc:format>image/svg+xml</dc:format>
          <dc:type rdf:resource="http://purl.org/dc/dcmitype/StillImage" />
          <dc:title>move</dc:title>
        </cc:Work>
      </rdf:RDF>
    </metadata>
    <sodipodi:namedview pagecolor="#ffffff" bordercolor="#666666" borderopacity="1" objecttolerance="10" gridtolerance="10" guidetolerance="10" inkscape:pageopacity="0" inkscape:pageshadow="2" inkscape:window-width="1765" inkscape:window-height="932"
    id="move-namedview6374" showgrid="false" inkscape:zoom="7.375" inkscape:cx="-20.118686" inkscape:cy="16" inkscape:window-x="647" inkscape:window-y="148" inkscape:window-maximized="0" inkscape:current-layer="svg6372" />
    <path d="M 7.226,3.613 C 7.226,5.608 5.608,7.226 3.613,7.226 1.618,7.226 0,5.608 0,3.613 0,1.618 1.618,0 3.613,0 5.608,0 7.226,1.618 7.226,3.613 Z" id="move-path6360" inkscape:connector-curvature="0" />
    <path d="m 19.613,3.613 c 0,1.995 -1.618,3.613 -3.613,3.613 -1.995,0 -3.613,-1.618 -3.613,-3.613 C 12.387,1.618 14.005,0 16,0 c 1.995,0 3.613,1.618 3.613,3.613 z" id="move-path6362" inkscape:connector-curvature="0" />
    <path d="m 33.032,3.613 c 0,1.995 -1.618,3.613 -3.613,3.613 -1.995,0 -3.613,-1.618 -3.613,-3.613 0,-1.995 1.618,-3.613 3.613,-3.613 1.995,0 3.613,1.618 3.613,3.613 z" id="move-path6364" inkscape:connector-curvature="0" />
    <path d="m 19.613,16 c 0,1.995 -1.618,3.613 -3.613,3.613 -1.995,0 -3.613,-1.618 -3.613,-3.613 0,-1.995 1.618,-3.613 3.613,-3.613 1.995,0 3.613,1.618 3.613,3.613 z" id="move-path6366" inkscape:connector-curvature="0" />
    <path d="m 7.226,16 c 0,1.995 -1.618,3.613 -3.613,3.613 C 1.618,19.613 0,17.995 0,16 c 0,-1.995 1.618,-3.613 3.613,-3.613 1.995,0 3.613,1.618 3.613,3.613 z" id="move-path6368" inkscape:connector-curvature="0" />
    <path d="M 7.226,28.387 C 7.226,30.382 5.608,32 3.613,32 1.618,32 0,30.382 0,28.387 c 0,-1.995 1.618,-3.613 3.613,-3.613 1.995,0 3.613,1.618 3.613,3.613 z" id="move-path6370" inkscape:connector-curvature="0" /> </symbol>
  <symbol viewBox="0 0 21 32" id="next">
    <title>next</title>
    <path fill="#444" d="M5.943 0.916l-5.028 5.028 10.055 10.057-10.055 10.057 5.028 5.028 15.084-15.084-15.084-15.084z" /> </symbol>
  <symbol viewBox="0 0 32 32" id="ol">
    <title>ol</title>
    <sodipodi:namedview pagecolor="#ffffff" bordercolor="#666666" borderopacity="1" objecttolerance="10" gridtolerance="10" guidetolerance="10" inkscape:pageopacity="0" inkscape:pageshadow="2" inkscape:window-width="1369" inkscape:window-height="802"
    id="ol-namedview1975" showgrid="false" inkscape:zoom="7.375" inkscape:cx="-5.4704851" inkscape:cy="16" inkscape:window-x="170" inkscape:window-y="174" inkscape:window-maximized="0" inkscape:current-layer="svg827" />
    <metadata id="ol-metadata833">
      <rdf:RDF>
        <cc:Work rdf:about="">
          <dc:format>image/svg+xml</dc:format>
          <dc:type rdf:resource="http://purl.org/dc/dcmitype/StillImage" />
          <dc:title/> </cc:Work>
      </rdf:RDF>
    </metadata>
    <g id="ol-g5101" transform="matrix(1.6685994,0,0,1.6685994,-10.36493,-11.546245)">
      <path id="ol-path5082" d="m 6.3006353,21.508603 h 2 v 0.5 h -1 v 1 h 1 v 0.5 h -2 v 1 h 3 v -4 h -3 z m 1,-9 h 1 V 8.5086034 h -2 v 1 h 1 z m -1,3 h 1.8 l -1.8,2.1 v 0.9 h 3 v -1 h -1.8 l 1.8,-2.1 v -0.9 h -3 z M 11.300635,9.5086034 v 1.9999996 h 14 V 9.5086034 Z m 0,13.9999996 h 14 v -2 h -14 z m 0,-6 h 14 v -2 h -14 z"
      inkscape:connector-curvature="0" /> </g>
  </symbol>
  <symbol viewBox="0 0 32 32" id="plus">
    <title>plus</title>
    <path fill="#444" d="M12.8 32h6.4v-32h-6.4v32z" />
    <path fill="#444" d="M0 12.8v6.4h32v-6.4h-32z" /> </symbol>
  <symbol viewBox="0 0 32 32" id="poll">
    <title>poll</title>
    <path fill="#444" d="M1.984 8.32h7.68v16.64h-7.68zM3.264 23.68h5.12v-14.080h-5.12zM31.394 27.52v-1.28h-30.722v1.28h30.722zM12.256 4.512h7.68v20.416h-7.68zM13.536 23.648h5.12v-17.856h-5.12zM22.464 12.16h7.68v12.8h-7.68zM23.744 13.44v10.24h5.12v-10.24z"
    /> </symbol>
  <symbol viewBox="0 0 32 32" id="publish">
    <title>publish</title>
    <path fill="#444" d="M27.733 18.133l-8.533 8.533v-6.4h-10.667v-4.267h10.667v-6.4zM14.396 9.598l-0.002-1.598h-13.861v20.267h13.867v-5.849h-3.2l0.029 2.643-7.301-0.011-0.159-13.788 7.428-0.064 0.003 2.722 3.2-0.003-0.004-4.319z" /> </symbol>
  <symbol viewBox="0 0 32 32" id="quote">
    <title>quote</title>
    <path fill="#444" d="M3.17 14.114l7.744-7.713 5.072 0.012-7.695 7.668h6.4v11.52h-11.52zM4.45 14.623v9.697h8.96v-8.96h-8.218l7.702-7.675-1.454-0.003zM15.97 14.114l7.744-7.713 5.072 0.012-7.695 7.668h6.4v11.52h-11.52zM17.25 14.623v9.697h8.96v-8.96h-8.218l7.702-7.675-1.454-0.003z"
    /> </symbol>
  <symbol viewBox="0 0 32 32" id="republish">
    <title>republish</title>
    <path fill="#444" d="M27.733 18.133l-8.533 8.533v-6.4h-10.667v-4.267h10.667v-6.4l6.4 6.4zM32 18.133l-8.533 8.533h-2.133l8.533-8.533-8.533-8.533h2.133zM14.396 9.598l-0.002-1.598h-13.861v20.267h13.867v-5.849h-3.2l0.029 2.643-7.301-0.011-0.159-13.788 7.428-0.064 0.003 2.722 3.2-0.003-0.004-4.319z"
    /> </symbol>
  <symbol viewBox="0 0 36 32" id="right-align">
    <title>right-align</title>
    <path fill="#444" d="M35.556 0v3.556h-35.556v-3.556h35.556z" />
    <path fill="#444" d="M35.556 14.222v3.556h-35.556v-3.556h35.556z" />
    <path fill="#444" d="M35.556 28.444v3.556h-35.556v-3.556h35.556z" />
    <path fill="#444" d="M35.556 7.111v3.556h-21.333v-3.556h21.333z" />
    <path fill="#444" d="M35.556 21.333v3.556h-21.333v-3.556h21.333z" /> </symbol>
  <symbol viewBox="0 0 23 32" id="rotate">
    <title>rotate</title>
    <path fill="#444" d="M1.143 9.143l9.143-9.143v18.286z" />
    <path fill="#444" d="M10.286 6.857c6.943 0 12.571 5.628 12.571 12.571s-5.628 12.571-12.571 12.571c-3.646 0-6.93-1.552-9.226-4.032l3.355-3.105c1.461 1.578 3.551 2.566 5.871 2.566 4.418 0 8-3.582 8-8s-3.582-8-8-8v-4.571z" /> </symbol>
  <symbol viewBox="0 0 32 32" id="search">
    <title>search</title>
    <path fill="#444" d="M0 29.333q0-1.111 0.778-1.889l9.074-9.037q-1.852-2.889-1.852-6.407 0-4.963 3.518-8.482t8.482-3.518 8.482 3.518 3.518 8.482-3.518 8.482-8.482 3.518q-3.518 0-6.407-1.852l-9.037 9.074q-0.778 0.778-1.889 0.778t-1.889-0.778-0.778-1.889zM12 12q0 3.296 2.352 5.648t5.648 2.352 5.648-2.352 2.352-5.648-2.352-5.648-5.648-2.352-5.648 2.352-2.352 5.648z"
    /> </symbol>
  <symbol viewBox="0 0 32 32" id="small-tick">
    <title>small-tick</title>
    <path fill="#444" d="M11.725 20.022l-4.867-5.159-3.017 3.017 7.859 7.859 16.459-16.459-3.017-3.017-13.417 13.76z" /> </symbol>
  <symbol viewBox="0 0 44 32" id="table">
    <title>table</title>
    <path fill="#444" d="M42.684 0v32h-42.684v-32h42.684zM1.778 30.222h39.127v-28.444h-39.127v28.444z" />
    <path fill="#444" d="M40.906 32h1.779v-21.333h-42.684v21.333h1.778v-19.556h39.127v19.556z" />
    <path fill="#444" d="M42.684 1.778v-1.778h-32.018v32h32.018v-1.778h-30.239v-28.444h30.239z" /> </symbol>
  <symbol viewBox="0 0 32 32" id="text">
    <title>text</title>
    <metadata id="text-metadata2611">
      <rdf:RDF>
        <cc:Work rdf:about="">
          <dc:format>image/svg+xml</dc:format>
          <dc:type rdf:resource="http://purl.org/dc/dcmitype/StillImage" /> </cc:Work>
      </rdf:RDF>
    </metadata>
    <sodipodi:namedview pagecolor="#ffffff" bordercolor="#666666" borderopacity="1" objecttolerance="10" gridtolerance="10" guidetolerance="10" inkscape:pageopacity="0" inkscape:pageshadow="2" inkscape:window-width="1294" inkscape:window-height="901"
    id="text-namedview2607" showgrid="false" inkscape:zoom="7.375" inkscape:cx="-0.88135593" inkscape:cy="16" inkscape:window-x="537" inkscape:window-y="72" inkscape:window-maximized="0" inkscape:current-layer="svg2605" />
    <path id="text-path3156" d="m 24.070107,0.12711829 c -0.651624,0 -1.286539,0.25062444 -1.787788,0.73516503 l -3.542158,3.54215878 8.855397,8.8721049 3.542158,-3.5087418 c 1.002498,-1.0192061 1.002498,-2.6064942 0,-3.5755754 L 25.841186,0.86228332 C 25.339938,0.37774273 24.705022,0.12711829 24.070107,0.12711829 M 17.553872,5.5907311 4.0201518,19.141159 l 4.2773238,0.467833 0.3007493,3.826199 3.8094911,0.284041 0.484541,4.277324 13.53372,-13.550428 M 3.0343623,20.695031 0.1104104,31.872881 11.304969,28.882096 10.90397,25.273104 7.0443534,24.989063 6.743604,21.112738"
    inkscape:connector-curvature="0" /> </symbol>
  <symbol viewBox="0 0 38 32" id="tick">
    <title>tick</title>
    <path fill="#444" d="M12.788 22.033l-7.301-7.74-4.525 4.525 11.788 11.788 24.689-24.689-4.525-4.525-20.125 20.64z" /> </symbol>
  <symbol viewBox="0 0 29 32" id="top">
    <title>top</title>
    <path fill="#444" d="M0 0v2.909h29.091v-2.909h-29.091z" />
    <path fill="#444" d="M13.091 2.909v29.091h2.909v-29.091h-2.909z" />
    <path fill="#444" d="M14.545 1.455l8.727 8.727h-17.455z" /> </symbol>
  <symbol viewBox="0 0 32 32" id="tweet">
    <title>tweet</title>
    <path fill="#444" d="M7.015 25.869c1.174 0.246 2.426 0.369 3.743 0.369 4.653 0 8.54-1.801 11.321-4.956 2.515-2.855 3.938-6.658 3.938-10.303 0-0.058-0-0.104-0.003-0.173-0.003-0.106-0.009-0.221-0.018-0.346-0.026-0.341-0.074-0.696-0.148-1.051-0.195-0.927-0.541-1.691-1.034-2.187-0.903-0.93-2.099-1.46-3.358-1.46-2.509 0-4.528 2.019-4.528 4.528 0 0.419 0.032 0.768 0.098 1.058l0.383 1.658-1.7-0.092c-4.361-0.237-8.359-1.958-11.397-4.831-0.012 0.131-0.018 0.265-0.018 0.402 0 1.526 0.762 2.919 2.022 3.759l3.749 2.5-4.503-0.155c-0.304-0.010-0.605-0.040-0.902-0.089 0.586 1.328 1.77 2.319 3.228 2.607l5.417 1.070-5.335 1.423c-0.247 0.066-0.501 0.118-0.759 0.157 0.817 0.888 1.981 1.444 3.235 1.461l3.574 0.046-2.791 2.233c-1.302 1.042-2.727 1.852-4.215 2.372zM27.297 10.98c0 7.679-5.841 16.539-16.539 16.539-3.281 0-6.366-0.722-8.926-2.363 0.459 0.066 0.919 0.098 1.378 0.098 2.724 0 5.25-1.181 7.219-2.756-2.527-0.033-4.693-1.739-5.414-4.036 0.361 0.066 0.722 0.099 1.083 0.099 0.525 0 1.050-0.066 1.542-0.197-2.658-0.525-4.66-2.888-4.66-5.775 0.788 0.427 1.674 0.689 2.625 0.722-1.575-1.050-2.592-2.822-2.592-4.824 0-1.083 0.295-1.969 0.788-2.822 2.888 3.511 7.154 5.71 11.977 5.972-0.098-0.427-0.131-0.886-0.131-1.345 0-3.216 2.592-5.808 5.808-5.808 1.668 0 3.173 0.717 4.255 1.827 1.293-0.265 2.521-0.753 3.622-1.4-0.423 1.333-1.329 2.474-2.527 3.197 0.002 0.005 0.004 0.010 0.005 0.015 1.167-0.134 2.271-0.46 3.309-0.915-0.781 1.172-1.757 2.183-2.862 3 0.038 0.41 0.038 0.698 0.038 0.774z"
    /> </symbol>
  <symbol viewBox="0 0 32 32" id="ul">
    <title>ul</title>
    <sodipodi:namedview pagecolor="#ffffff" bordercolor="#666666" borderopacity="1" objecttolerance="10" gridtolerance="10" guidetolerance="10" inkscape:pageopacity="0" inkscape:pageshadow="2" inkscape:window-width="997" inkscape:window-height="683"
    id="ul-namedview1418" showgrid="false" inkscape:zoom="7.375" inkscape:cx="17.345139" inkscape:cy="16" inkscape:window-x="403" inkscape:window-y="81" inkscape:window-maximized="0" inkscape:current-layer="svg827" />
    <metadata id="ul-metadata833">
      <rdf:RDF>
        <cc:Work rdf:about="">
          <dc:format>image/svg+xml</dc:format>
          <dc:type rdf:resource="http://purl.org/dc/dcmitype/StillImage" />
          <dc:title/> </cc:Work>
      </rdf:RDF>
    </metadata>
    <g id="ul-g5122" transform="matrix(1.7322034,0,0,1.7322034,-53.08996,-13.82913)">
      <path id="ul-path5103" d="m 32.135593,15.720339 c -0.83,0 -1.5,0.67 -1.5,1.5 0,0.83 0.67,1.5 1.5,1.5 0.83,0 1.5,-0.67 1.5,-1.5 0,-0.83 -0.67,-1.5 -1.5,-1.5 z m 0,-6.0000003 c -0.83,0 -1.5,0.6700003 -1.5,1.5000003 0,0.83 0.67,1.5 1.5,1.5 0.83,0 1.5,-0.67 1.5,-1.5 0,-0.83 -0.67,-1.5000003 -1.5,-1.5000003 z m 0,12.0000003 c -0.83,0 -1.5,0.68 -1.5,1.5 0,0.82 0.68,1.5 1.5,1.5 0.82,0 1.5,-0.68 1.5,-1.5 0,-0.82 -0.67,-1.5 -1.5,-1.5 z m 3,2.5 h 14 v -2 h -14 z m 0,-6 h 14 v -2 h -14 z m 0,-8 v 2 h 14 v -2 z"
      inkscape:connector-curvature="0" /> </g>
  </symbol>
  <symbol viewBox="0 0 32 32" id="user">
    <title>user</title>
    <path fill="#444" d="M26.667 26.667c-7.649 0.062-15.272 0.062-21.333 0 0-3.612 3.665-6.625 8.533-7.317v-1.787c-1.275-0.738-2.133-2.117-2.133-3.696 0-0.094 0.003-0.188 0.009-0.28-0.643-0.368-1.076-1.060-1.076-1.853s0.433-1.486 1.076-1.853c-0.006-0.092-0.009-0.186-0.009-0.28 0-2.356 1.91-4.267 4.267-4.267s4.267 1.91 4.267 4.267c0 0.094-0.003 0.188-0.009 0.28 0.642 0.368 1.076 1.060 1.076 1.853s-0.433 1.486-1.076 1.853c0.006 0.092 0.009 0.186 0.009 0.28 0 1.579-0.858 2.958-2.133 3.696v1.787c4.869 0.692 8.533 3.705 8.533 7.317z"
    /> </symbol>
  <symbol viewBox="0 0 32 32" id="video">
    <title>video</title>
    <path fill="#444" d="M31.36 4.48v23.040h-30.72v-23.040zM1.92 26.24h28.16v-20.48h-28.16zM8.32 16.064c0-4.242 3.438-7.68 7.68-7.68s7.68 3.438 7.68 7.68c0 4.242-3.438 7.68-7.68 7.68s-7.68-3.438-7.68-7.68zM22.4 16.064c0-3.535-2.865-6.4-6.4-6.4s-6.4 2.865-6.4 6.4c0 3.535 2.865 6.4 6.4 6.4s6.4-2.865 6.4-6.4zM13.44 12.224l6.4 3.808-6.4 3.808zM17.337 16.032l-2.617-1.557v3.114z"
    /> </symbol>
  <symbol viewBox="0 0 32 32" id="view">
    <title>view</title>
    <path fill="#444" d="M16 24.533c-7.467 0-13.867-8.533-13.867-8.533s6.4-8.533 13.867-8.533c7.467 0 13.867 8.533 13.867 8.533s-6.4 8.533-13.867 8.533zM16 20.267c2.356 0 4.267-1.91 4.267-4.267s-1.91-4.267-4.267-4.267c-2.356 0-4.267 1.91-4.267 4.267s1.91 4.267 4.267 4.267z"
    /> </symbol>
</svg>