<?xml version="1.0" encoding="UTF-8" standalone="no"?>
<!-- Generated by IcoMoon.io -->

<svg
   xmlns:dc="http://purl.org/dc/elements/1.1/"
   xmlns:cc="http://creativecommons.org/ns#"
   xmlns:rdf="http://www.w3.org/1999/02/22-rdf-syntax-ns#"
   xmlns:svg="http://www.w3.org/2000/svg"
   xmlns="http://www.w3.org/2000/svg"
   xmlns:sodipodi="http://sodipodi.sourceforge.net/DTD/sodipodi-0.dtd"
   xmlns:inkscape="http://www.inkscape.org/namespaces/inkscape"
   version="1.1"
   width="32"
   height="32"
   viewBox="0 0 32 32"
   id="svg831"
   sodipodi:docname="add-block.svg"
   inkscape:version="0.92.3 (2405546, 2018-03-11)">
  <title
     id="title839">add-block</title>
  <metadata
     id="metadata837">
    <rdf:RDF>
      <cc:Work
         rdf:about="">
        <dc:format>image/svg+xml</dc:format>
        <dc:type
           rdf:resource="http://purl.org/dc/dcmitype/StillImage" />
        <dc:title>add-block</dc:title>
      </cc:Work>
    </rdf:RDF>
  </metadata>
  <defs
     id="defs835" />
  <sodipodi:namedview
     pagecolor="#ffffff"
     bordercolor="#666666"
     borderopacity="1"
     objecttolerance="10"
     gridtolerance="10"
     guidetolerance="10"
     inkscape:pageopacity="0"
     inkscape:pageshadow="2"
     inkscape:window-width="1442"
     inkscape:window-height="1177"
     id="namedview833"
     showgrid="false"
     inkscape:zoom="13.976407"
     inkscape:cx="10.719205"
     inkscape:cy="21.17039"
     inkscape:window-x="373"
     inkscape:window-y="190"
     inkscape:window-maximized="0"
     inkscape:current-layer="svg831" />
  <path
     d="M 16,32 C 24.837,32 32,24.837 32,16 32,7.163 24.837,0 16,0 7.163,0 0,7.163 0,16 0,24.837 7.163,32 16,32 Z m 0,-1.164 C 7.806,30.836 1.164,24.194 1.164,16 1.164,7.806 7.806,1.164 16,1.164 c 8.194,0 14.836,6.642 14.836,14.836 0,8.194 -6.642,14.836 -14.836,14.836 z"
     id="path827"
     style="fill:#000000;fill-opacity:1"
     inkscape:connector-curvature="0" />
  <path
     d="m 23.855,16.291 c 0,0.345 -0.037,0.641 -0.111,0.887 -0.074,0.246 -0.292,0.37 -0.653,0.37 h -5.543 v 5.568 c 0,0.345 -0.123,0.554 -0.37,0.628 -0.247,0.074 -0.542,0.111 -0.887,0.111 -0.345,0 -0.641,-0.037 -0.887,-0.111 -0.246,-0.074 -0.37,-0.283 -0.37,-0.628 V 17.548 H 9.491 c -0.361,0 -0.579,-0.123 -0.653,-0.37 -0.074,-0.247 -0.111,-0.542 -0.111,-0.887 0,-0.345 0.037,-0.641 0.111,-0.887 0.074,-0.246 0.292,-0.37 0.653,-0.37 h 5.543 V 9.491 c 0,-0.345 0.123,-0.558 0.37,-0.641 0.247,-0.083 0.542,-0.123 0.887,-0.123 0.345,0 0.641,0.041 0.887,0.123 0.246,0.082 0.37,0.296 0.37,0.641 v 5.543 h 5.543 c 0.361,0 0.579,0.123 0.653,0.37 0.074,0.247 0.111,0.542 0.111,0.887 v 0 z"
     id="path829"
     style="fill:#040000;fill-opacity:1"
     inkscape:connector-curvature="0" />
</svg>
