<?xml version="1.0" encoding="UTF-8" standalone="no"?>
<svg
   xmlns:dc="http://purl.org/dc/elements/1.1/"
   xmlns:cc="http://creativecommons.org/ns#"
   xmlns:rdf="http://www.w3.org/1999/02/22-rdf-syntax-ns#"
   xmlns:svg="http://www.w3.org/2000/svg"
   xmlns="http://www.w3.org/2000/svg"
   xmlns:sodipodi="http://sodipodi.sourceforge.net/DTD/sodipodi-0.dtd"
   xmlns:inkscape="http://www.inkscape.org/namespaces/inkscape"
   id="svg827"
   viewBox="0 0 32 32"
   height="32"
   width="32"
   version="1.1"
   sodipodi:docname="box_notice.svg"
   inkscape:version="0.92.3 (2405546, 2018-03-11)">
  <sodipodi:namedview
     pagecolor="#ffffff"
     bordercolor="#666666"
     borderopacity="1"
     objecttolerance="10"
     gridtolerance="10"
     guidetolerance="10"
     inkscape:pageopacity="0"
     inkscape:pageshadow="2"
     inkscape:window-width="1419"
     inkscape:window-height="967"
     id="namedview825"
     showgrid="false"
     inkscape:zoom="19.28125"
     inkscape:cx="8.03759"
     inkscape:cy="17.417875"
     inkscape:window-x="118"
     inkscape:window-y="411"
     inkscape:window-maximized="0"
     inkscape:current-layer="svg827" />
  <metadata
     id="metadata833">
    <rdf:RDF>
      <cc:Work
         rdf:about="">
        <dc:format>image/svg+xml</dc:format>
        <dc:type
           rdf:resource="http://purl.org/dc/dcmitype/StillImage" />
        <dc:title></dc:title>
      </cc:Work>
    </rdf:RDF>
  </metadata>
  <defs
     id="defs831" />
  <path
     id="path6299"
     d="m 14.403567,11.210696 h 3.192868 V 8.0178273 h -3.192868 m 1.596434,20.7536467 c -7.0402759,0 -12.7714769,-5.731199 -12.7714769,-12.771475 0,-7.0402755 5.731201,-12.7714733 12.7714769,-12.7714733 7.040276,0 12.771475,5.7311978 12.771475,12.7714733 0,7.040276 -5.731199,12.771475 -12.771475,12.771475 m 0,-28.7358171 A 15.964344,15.964344 0 0 0 0.03565531,15.999999 15.964344,15.964344 0 0 0 16.000001,31.964343 15.964344,15.964344 0 0 0 31.964345,15.999999 15.964344,15.964344 0 0 0 16.000001,0.0356569 M 14.403567,23.982171 h 3.192868 v -9.578606 h -3.192868 z"
     inkscape:connector-curvature="0"
     style="fill:#444444;fill-opacity:1;stroke-width:1.59643435" />
</svg>
