<?xml version="1.0" encoding="UTF-8" standalone="no"?>
<svg
   xmlns:dc="http://purl.org/dc/elements/1.1/"
   xmlns:cc="http://creativecommons.org/ns#"
   xmlns:rdf="http://www.w3.org/1999/02/22-rdf-syntax-ns#"
   xmlns:svg="http://www.w3.org/2000/svg"
   xmlns="http://www.w3.org/2000/svg"
   xmlns:sodipodi="http://sodipodi.sourceforge.net/DTD/sodipodi-0.dtd"
   xmlns:inkscape="http://www.inkscape.org/namespaces/inkscape"
   id="svg827"
   viewBox="0 0 32 32"
   height="32"
   width="32"
   version="1.1"
   sodipodi:docname="box_info.svg"
   inkscape:version="0.92.3 (2405546, 2018-03-11)">
  <sodipodi:namedview
     pagecolor="#ffffff"
     bordercolor="#666666"
     borderopacity="1"
     objecttolerance="10"
     gridtolerance="10"
     guidetolerance="10"
     inkscape:pageopacity="0"
     inkscape:pageshadow="2"
     inkscape:window-width="1419"
     inkscape:window-height="967"
     id="namedview825"
     showgrid="false"
     inkscape:zoom="19.28125"
     inkscape:cx="8.03759"
     inkscape:cy="17.417875"
     inkscape:window-x="770"
     inkscape:window-y="383"
     inkscape:window-maximized="0"
     inkscape:current-layer="svg827" />
  <metadata
     id="metadata833">
    <rdf:RDF>
      <cc:Work
         rdf:about="">
        <dc:format>image/svg+xml</dc:format>
        <dc:type
           rdf:resource="http://purl.org/dc/dcmitype/StillImage" />
        <dc:title />
      </cc:Work>
    </rdf:RDF>
  </metadata>
  <defs
     id="defs831" />
  <path
     style="fill:#444444;fill-opacity:1;stroke-width:1.44546521"
     inkscape:connector-curvature="0"
     d="M 28.214181,6.510521 26.176075,4.472415 23.588692,7.074252 25.626798,9.1123583 Z M 17.445465,0.858752 h -2.89093 v 4.264122 h 2.89093 z m 10.118257,17.273309 h 4.336395 v -2.89093 H 27.563722 Z M 11.663604,24.18856 v 6.952688 h 8.672792 V 24.18856 c 2.587382,-1.503283 4.336395,-4.293031 4.336395,-7.501964 0,-4.78449 -3.888301,-8.672791 -8.672791,-8.672791 -4.78449,0 -8.672791,3.888301 -8.672791,8.672791 0,3.208933 1.749013,5.998681 4.336395,7.501964 z M 4.436278,18.132061 v -2.89093 H 0.099883 v 2.89093 z M 8.425762,7.059798 5.83838,4.45796 3.800274,6.496066 6.402111,9.0834489 Z"
     id="path4-1" />
</svg>
