<?xml version="1.0" encoding="UTF-8" standalone="no"?>
<!-- Generated by IcoMoon.io -->

<svg
   xmlns:dc="http://purl.org/dc/elements/1.1/"
   xmlns:cc="http://creativecommons.org/ns#"
   xmlns:rdf="http://www.w3.org/1999/02/22-rdf-syntax-ns#"
   xmlns:svg="http://www.w3.org/2000/svg"
   xmlns="http://www.w3.org/2000/svg"
   xmlns:sodipodi="http://sodipodi.sourceforge.net/DTD/sodipodi-0.dtd"
   xmlns:inkscape="http://www.inkscape.org/namespaces/inkscape"
   version="1.1"
   width="33"
   height="32"
   viewBox="0 0 33 32"
   id="svg6372"
   sodipodi:docname="move.svg"
   inkscape:version="0.92.3 (2405546, 2018-03-11)">
  <metadata
     id="metadata6378">
    <rdf:RDF>
      <cc:Work
         rdf:about="">
        <dc:format>image/svg+xml</dc:format>
        <dc:type
           rdf:resource="http://purl.org/dc/dcmitype/StillImage" />
        <dc:title>move</dc:title>
      </cc:Work>
    </rdf:RDF>
  </metadata>
  <defs
     id="defs6376" />
  <sodipodi:namedview
     pagecolor="#ffffff"
     bordercolor="#666666"
     borderopacity="1"
     objecttolerance="10"
     gridtolerance="10"
     guidetolerance="10"
     inkscape:pageopacity="0"
     inkscape:pageshadow="2"
     inkscape:window-width="1765"
     inkscape:window-height="932"
     id="namedview6374"
     showgrid="false"
     inkscape:zoom="7.375"
     inkscape:cx="-20.118686"
     inkscape:cy="16"
     inkscape:window-x="647"
     inkscape:window-y="148"
     inkscape:window-maximized="0"
     inkscape:current-layer="svg6372" />
  <title
     id="title6358">move</title>
  <path
     d="M 7.226,3.613 C 7.226,5.608 5.608,7.226 3.613,7.226 1.618,7.226 0,5.608 0,3.613 0,1.618 1.618,0 3.613,0 5.608,0 7.226,1.618 7.226,3.613 Z"
     id="path6360"
     inkscape:connector-curvature="0"
     style="fill:#444444" />
  <path
     d="m 19.613,3.613 c 0,1.995 -1.618,3.613 -3.613,3.613 -1.995,0 -3.613,-1.618 -3.613,-3.613 C 12.387,1.618 14.005,0 16,0 c 1.995,0 3.613,1.618 3.613,3.613 z"
     id="path6362"
     inkscape:connector-curvature="0"
     style="fill:#444444" />
  <path
     d="m 33.032,3.613 c 0,1.995 -1.618,3.613 -3.613,3.613 -1.995,0 -3.613,-1.618 -3.613,-3.613 0,-1.995 1.618,-3.613 3.613,-3.613 1.995,0 3.613,1.618 3.613,3.613 z"
     id="path6364"
     inkscape:connector-curvature="0"
     style="fill:#444444" />
  <path
     d="m 19.613,16 c 0,1.995 -1.618,3.613 -3.613,3.613 -1.995,0 -3.613,-1.618 -3.613,-3.613 0,-1.995 1.618,-3.613 3.613,-3.613 1.995,0 3.613,1.618 3.613,3.613 z"
     id="path6366"
     inkscape:connector-curvature="0"
     style="fill:#444444" />
  <path
     d="m 7.226,16 c 0,1.995 -1.618,3.613 -3.613,3.613 C 1.618,19.613 0,17.995 0,16 c 0,-1.995 1.618,-3.613 3.613,-3.613 1.995,0 3.613,1.618 3.613,3.613 z"
     id="path6368"
     inkscape:connector-curvature="0"
     style="fill:#444444" />
  <path
     d="M 7.226,28.387 C 7.226,30.382 5.608,32 3.613,32 1.618,32 0,30.382 0,28.387 c 0,-1.995 1.618,-3.613 3.613,-3.613 1.995,0 3.613,1.618 3.613,3.613 z"
     id="path6370"
     inkscape:connector-curvature="0"
     style="fill:#444444" />
</svg>
