<?xml version="1.0" encoding="UTF-8" standalone="no"?>
<svg
   xmlns:dc="http://purl.org/dc/elements/1.1/"
   xmlns:cc="http://creativecommons.org/ns#"
   xmlns:rdf="http://www.w3.org/1999/02/22-rdf-syntax-ns#"
   xmlns:svg="http://www.w3.org/2000/svg"
   xmlns="http://www.w3.org/2000/svg"
   xmlns:sodipodi="http://sodipodi.sourceforge.net/DTD/sodipodi-0.dtd"
   xmlns:inkscape="http://www.inkscape.org/namespaces/inkscape"
   id="svg827"
   viewBox="0 0 32 32"
   height="32"
   width="32"
   version="1.1"
   sodipodi:docname="ul.svg"
   inkscape:version="0.92.3 (2405546, 2018-03-11)">
  <sodipodi:namedview
     pagecolor="#ffffff"
     bordercolor="#666666"
     borderopacity="1"
     objecttolerance="10"
     gridtolerance="10"
     guidetolerance="10"
     inkscape:pageopacity="0"
     inkscape:pageshadow="2"
     inkscape:window-width="997"
     inkscape:window-height="683"
     id="namedview1418"
     showgrid="false"
     inkscape:zoom="7.375"
     inkscape:cx="17.345139"
     inkscape:cy="16"
     inkscape:window-x="403"
     inkscape:window-y="81"
     inkscape:window-maximized="0"
     inkscape:current-layer="svg827" />
  <metadata
     id="metadata833">
    <rdf:RDF>
      <cc:Work
         rdf:about="">
        <dc:format>image/svg+xml</dc:format>
        <dc:type
           rdf:resource="http://purl.org/dc/dcmitype/StillImage" />
        <dc:title />
      </cc:Work>
    </rdf:RDF>
  </metadata>
  <defs
     id="defs831" />
  <g
     id="g5122"
     transform="matrix(1.7322034,0,0,1.7322034,-53.08996,-13.82913)">
    <path
       id="path5103"
       d="m 32.135593,15.720339 c -0.83,0 -1.5,0.67 -1.5,1.5 0,0.83 0.67,1.5 1.5,1.5 0.83,0 1.5,-0.67 1.5,-1.5 0,-0.83 -0.67,-1.5 -1.5,-1.5 z m 0,-6.0000003 c -0.83,0 -1.5,0.6700003 -1.5,1.5000003 0,0.83 0.67,1.5 1.5,1.5 0.83,0 1.5,-0.67 1.5,-1.5 0,-0.83 -0.67,-1.5000003 -1.5,-1.5000003 z m 0,12.0000003 c -0.83,0 -1.5,0.68 -1.5,1.5 0,0.82 0.68,1.5 1.5,1.5 0.82,0 1.5,-0.68 1.5,-1.5 0,-0.82 -0.67,-1.5 -1.5,-1.5 z m 3,2.5 h 14 v -2 h -14 z m 0,-6 h 14 v -2 h -14 z m 0,-8 v 2 h 14 v -2 z"
       inkscape:connector-curvature="0" />
  </g>
</svg>
